<svg class="env-deco" viewBox="0 0 300 210" xmlns="http://www.w3.org/2000/svg"><defs><radialGradient id="rose" cx="42%" cy="34%" r="72%"><stop offset="0%" stop-color="#dbe4ee"/><stop offset="40%" stop-color="#aec1d4"/><stop offset="80%" stop-color="#88a1ba"/><stop offset="100%" stop-color="#5f7a95"/></radialGradient><radialGradient id="roseC" cx="50%" cy="50%" r="60%"><stop offset="0%" stop-color="#6f8aa4"/><stop offset="100%" stop-color="#47607a"/></radialGradient><linearGradient id="leaf" x1="0" y1="0" x2="0.4" y2="1"><stop offset="0%" stop-color="#9db584"/><stop offset="55%" stop-color="#6f8f57"/><stop offset="100%" stop-color="#4c6a3f"/></linearGradient><linearGradient id="rib" x1="0" y1="0" x2="0" y2="1"><stop offset="0%" stop-color="#fdf7e6"/><stop offset="42%" stop-color="#ecd9a0"/><stop offset="100%" stop-color="#d3b872"/></linearGradient><linearGradient id="ribD" x1="0" y1="0" x2="0" y2="1"><stop offset="0%" stop-color="#d8be7f"/><stop offset="100%" stop-color="#b89a52"/></linearGradient><filter id="soft" x="-30%" y="-30%" width="160%" height="160%"><feDropShadow dx="0" dy="1.4" stdDeviation="1.6" flood-color="#3a241f" flood-opacity="0.35"/></filter><filter id="blur"><feGaussianBlur stdDeviation="1.6"/></filter><linearGradient id="ring" x1="0" y1="0" x2="0" y2="1"><stop offset="0%" stop-color="#fdf6e3"/><stop offset="50%" stop-color="#e6c877"/><stop offset="100%" stop-color="#c69f45"/></linearGradient><linearGradient id="boxSide" x1="0" y1="0" x2="0" y2="1"><stop offset="0%" stop-color="#20375f"/><stop offset="100%" stop-color="#0f1d38"/></linearGradient><linearGradient id="boxTop" x1="0" y1="0" x2="0" y2="1"><stop offset="0%" stop-color="#2a4676"/><stop offset="100%" stop-color="#1a3059"/></linearGradient><linearGradient id="boxLid" x1="0" y1="0" x2="0" y2="1"><stop offset="0%" stop-color="#243d68"/><stop offset="100%" stop-color="#15274a"/></linearGradient><linearGradient id="boxLidIn" x1="0" y1="0" x2="0" y2="1"><stop offset="0%" stop-color="#0e1b34"/><stop offset="100%" stop-color="#182c50"/></linearGradient></defs><g transform="translate(54,44) scale(1.08,1.08)"><g transform="translate(-44,-4) rotate(-64)" filter="url(#blur)"><path d="M0,0 C-19.2,-16.8 -9.0,-52.8 0,-60.0 C9.0,-52.8 19.2,-16.8 0,0 Z" fill="url(#leaf)"/><path d="M2,-3 L0,-55.2" stroke="#ffffff30" stroke-width="0.8" fill="none"/></g><g transform="translate(38,-8) rotate(60)" filter="url(#blur)"><path d="M0,0 C-17.9,-15.7 -8.4,-49.3 0,-56.0 C8.4,-49.3 17.9,-15.7 0,0 Z" fill="url(#leaf)"/><path d="M2,-3 L0,-51.5" stroke="#ffffff30" stroke-width="0.8" fill="none"/></g><g transform="translate(-6,-48) rotate(-6)" filter="url(#blur)"><path d="M0,0 C-20.5,-17.9 -9.6,-56.3 0,-64.0 C9.6,-56.3 20.5,-17.9 0,0 Z" fill="url(#leaf)"/><path d="M2,-3 L0,-58.9" stroke="#ffffff30" stroke-width="0.8" fill="none"/></g><g transform="translate(-36,-6) rotate(-56)"><path d="M0,0 C-15.6,-14.6 -7.8,-45.8 0,-52.0 C7.8,-45.8 15.6,-14.6 0,0 Z" fill="url(#leaf)"/><path d="M2,-3 L0,-47.8" stroke="#ffffff30" stroke-width="0.8" fill="none"/></g><g transform="translate(30,-10) rotate(52)"><path d="M0,0 C-14.4,-13.4 -7.2,-42.2 0,-48.0 C7.2,-42.2 14.4,-13.4 0,0 Z" fill="url(#leaf)"/><path d="M2,-3 L0,-44.2" stroke="#ffffff30" stroke-width="0.8" fill="none"/></g><g transform="translate(-12,-40) rotate(-10)"><path d="M0,0 C-16.2,-15.1 -8.1,-47.5 0,-54.0 C8.1,-47.5 16.2,-15.1 0,0 Z" fill="url(#leaf)"/><path d="M2,-3 L0,-49.7" stroke="#ffffff30" stroke-width="0.8" fill="none"/></g><g transform="translate(-48,20) rotate(-98)"><path d="M0,0 C-12.6,-11.8 -6.3,-37.0 0,-42.0 C6.3,-37.0 12.6,-11.8 0,0 Z" fill="url(#leaf)"/><path d="M2,-3 L0,-38.6" stroke="#ffffff30" stroke-width="0.8" fill="none"/></g><g transform="translate(42,22) rotate(106)"><path d="M0,0 C-13.2,-12.3 -6.6,-38.7 0,-44.0 C6.6,-38.7 13.2,-12.3 0,0 Z" fill="url(#leaf)"/><path d="M2,-3 L0,-40.5" stroke="#ffffff30" stroke-width="0.8" fill="none"/></g><g transform="translate(-42,-30) rotate(-32) scale(0.95)" filter="url(#soft)"><path d="M0,2 C-7,-2 -7,-17 0,-22 C7,-17 7,-2 0,2Z" fill="url(#rose)"/><path d="M0,0 C-4,-2 -3,-11 0,-14 C3,-11 4,-2 0,0Z" fill="#b9cad9" opacity=".8"/><path d="M0,2 C-3,6 -6,7 -8,10 M0,2 C3,6 6,7 8,10" stroke="url(#leaf)" stroke-width="3" fill="none" stroke-linecap="round"/></g><g transform="translate(46,-22) rotate(30) scale(0.9)" filter="url(#soft)"><path d="M0,2 C-7,-2 -7,-17 0,-22 C7,-17 7,-2 0,2Z" fill="url(#rose)"/><path d="M0,0 C-4,-2 -3,-11 0,-14 C3,-11 4,-2 0,0Z" fill="#b9cad9" opacity=".8"/><path d="M0,2 C-3,6 -6,7 -8,10 M0,2 C3,6 6,7 8,10" stroke="url(#leaf)" stroke-width="3" fill="none" stroke-linecap="round"/></g><g transform="translate(-2,-52) rotate(4) scale(0.85)" filter="url(#soft)"><path d="M0,2 C-7,-2 -7,-17 0,-22 C7,-17 7,-2 0,2Z" fill="url(#rose)"/><path d="M0,0 C-4,-2 -3,-11 0,-14 C3,-11 4,-2 0,0Z" fill="#b9cad9" opacity=".8"/><path d="M0,2 C-3,6 -6,7 -8,10 M0,2 C3,6 6,7 8,10" stroke="url(#leaf)" stroke-width="3" fill="none" stroke-linecap="round"/></g><g transform="translate(-4,-4) rotate(12)" filter="url(#soft)"><circle r="22.5" fill="#5f7a95" opacity="0.25"/><path d="M0,0 C-13.0,-3.0 -13.0,-17.5 0,-25.0 C13.0,-17.5 13.0,-3.0 0,0 Z" transform="rotate(0.0)" fill="url(#rose)"/><path d="M0,0 C-13.0,-3.0 -13.0,-17.5 0,-25.0 C13.0,-17.5 13.0,-3.0 0,0 Z" transform="rotate(0.0) scale(0.9)" fill="#00000010"/><path d="M0,0 C-13.0,-3.0 -13.0,-17.5 0,-25.0 C13.0,-17.5 13.0,-3.0 0,0 Z" transform="rotate(60.0)" fill="url(#rose)"/><path d="M0,0 C-13.0,-3.0 -13.0,-17.5 0,-25.0 C13.0,-17.5 13.0,-3.0 0,0 Z" transform="rotate(60.0) scale(0.9)" fill="#00000010"/><path d="M0,0 C-13.0,-3.0 -13.0,-17.5 0,-25.0 C13.0,-17.5 13.0,-3.0 0,0 Z" transform="rotate(120.0)" fill="url(#rose)"/><path d="M0,0 C-13.0,-3.0 -13.0,-17.5 0,-25.0 C13.0,-17.5 13.0,-3.0 0,0 Z" transform="rotate(120.0) scale(0.9)" fill="#00000010"/><path d="M0,0 C-13.0,-3.0 -13.0,-17.5 0,-25.0 C13.0,-17.5 13.0,-3.0 0,0 Z" transform="rotate(180.0)" fill="url(#rose)"/><path d="M0,0 C-13.0,-3.0 -13.0,-17.5 0,-25.0 C13.0,-17.5 13.0,-3.0 0,0 Z" transform="rotate(180.0) scale(0.9)" fill="#00000010"/><path d="M0,0 C-13.0,-3.0 -13.0,-17.5 0,-25.0 C13.0,-17.5 13.0,-3.0 0,0 Z" transform="rotate(240.0)" fill="url(#rose)"/><path d="M0,0 C-13.0,-3.0 -13.0,-17.5 0,-25.0 C13.0,-17.5 13.0,-3.0 0,0 Z" transform="rotate(240.0) scale(0.9)" fill="#00000010"/><path d="M0,0 C-13.0,-3.0 -13.0,-17.5 0,-25.0 C13.0,-17.5 13.0,-3.0 0,0 Z" transform="rotate(300.0)" fill="url(#rose)"/><path d="M0,0 C-13.0,-3.0 -13.0,-17.5 0,-25.0 C13.0,-17.5 13.0,-3.0 0,0 Z" transform="rotate(300.0) scale(0.9)" fill="#00000010"/><path d="M0,0 C-10.4,-2.4 -10.4,-14.0 0,-20.0 C10.4,-14.0 10.4,-2.4 0,0 Z" transform="rotate(18.0)" fill="url(#rose)"/><path d="M0,0 C-10.4,-2.4 -10.4,-14.0 0,-20.0 C10.4,-14.0 10.4,-2.4 0,0 Z" transform="rotate(18.0) scale(0.9)" fill="#00000010"/><path d="M0,0 C-10.4,-2.4 -10.4,-14.0 0,-20.0 C10.4,-14.0 10.4,-2.4 0,0 Z" transform="rotate(78.0)" fill="url(#rose)"/><path d="M0,0 C-10.4,-2.4 -10.4,-14.0 0,-20.0 C10.4,-14.0 10.4,-2.4 0,0 Z" transform="rotate(78.0) scale(0.9)" fill="#00000010"/><path d="M0,0 C-10.4,-2.4 -10.4,-14.0 0,-20.0 C10.4,-14.0 10.4,-2.4 0,0 Z" transform="rotate(138.0)" fill="url(#rose)"/><path d="M0,0 C-10.4,-2.4 -10.4,-14.0 0,-20.0 C10.4,-14.0 10.4,-2.4 0,0 Z" transform="rotate(138.0) scale(0.9)" fill="#00000010"/><path d="M0,0 C-10.4,-2.4 -10.4,-14.0 0,-20.0 C10.4,-14.0 10.4,-2.4 0,0 Z" transform="rotate(198.0)" fill="url(#rose)"/><path d="M0,0 C-10.4,-2.4 -10.4,-14.0 0,-20.0 C10.4,-14.0 10.4,-2.4 0,0 Z" transform="rotate(198.0) scale(0.9)" fill="#00000010"/><path d="M0,0 C-10.4,-2.4 -10.4,-14.0 0,-20.0 C10.4,-14.0 10.4,-2.4 0,0 Z" transform="rotate(258.0)" fill="url(#rose)"/><path d="M0,0 C-10.4,-2.4 -10.4,-14.0 0,-20.0 C10.4,-14.0 10.4,-2.4 0,0 Z" transform="rotate(258.0) scale(0.9)" fill="#00000010"/><path d="M0,0 C-10.4,-2.4 -10.4,-14.0 0,-20.0 C10.4,-14.0 10.4,-2.4 0,0 Z" transform="rotate(318.0)" fill="url(#rose)"/><path d="M0,0 C-10.4,-2.4 -10.4,-14.0 0,-20.0 C10.4,-14.0 10.4,-2.4 0,0 Z" transform="rotate(318.0) scale(0.9)" fill="#00000010"/><path d="M0,0 C-8.1,-1.9 -8.1,-10.8 0,-15.5 C8.1,-10.8 8.1,-1.9 0,0 Z" transform="rotate(34.0)" fill="url(#rose)"/><path d="M0,0 C-8.1,-1.9 -8.1,-10.8 0,-15.5 C8.1,-10.8 8.1,-1.9 0,0 Z" transform="rotate(34.0) scale(0.9)" fill="#00000010"/><path d="M0,0 C-8.1,-1.9 -8.1,-10.8 0,-15.5 C8.1,-10.8 8.1,-1.9 0,0 Z" transform="rotate(94.0)" fill="url(#rose)"/><path d="M0,0 C-8.1,-1.9 -8.1,-10.8 0,-15.5 C8.1,-10.8 8.1,-1.9 0,0 Z" transform="rotate(94.0) scale(0.9)" fill="#00000010"/><path d="M0,0 C-8.1,-1.9 -8.1,-10.8 0,-15.5 C8.1,-10.8 8.1,-1.9 0,0 Z" transform="rotate(154.0)" fill="url(#rose)"/><path d="M0,0 C-8.1,-1.9 -8.1,-10.8 0,-15.5 C8.1,-10.8 8.1,-1.9 0,0 Z" transform="rotate(154.0) scale(0.9)" fill="#00000010"/><path d="M0,0 C-8.1,-1.9 -8.1,-10.8 0,-15.5 C8.1,-10.8 8.1,-1.9 0,0 Z" transform="rotate(214.0)" fill="url(#rose)"/><path d="M0,0 C-8.1,-1.9 -8.1,-10.8 0,-15.5 C8.1,-10.8 8.1,-1.9 0,0 Z" transform="rotate(214.0) scale(0.9)" fill="#00000010"/><path d="M0,0 C-8.1,-1.9 -8.1,-10.8 0,-15.5 C8.1,-10.8 8.1,-1.9 0,0 Z" transform="rotate(274.0)" fill="url(#rose)"/><path d="M0,0 C-8.1,-1.9 -8.1,-10.8 0,-15.5 C8.1,-10.8 8.1,-1.9 0,0 Z" transform="rotate(274.0) scale(0.9)" fill="#00000010"/><path d="M0,0 C-8.1,-1.9 -8.1,-10.8 0,-15.5 C8.1,-10.8 8.1,-1.9 0,0 Z" transform="rotate(334.0)" fill="url(#rose)"/><path d="M0,0 C-8.1,-1.9 -8.1,-10.8 0,-15.5 C8.1,-10.8 8.1,-1.9 0,0 Z" transform="rotate(334.0) scale(0.9)" fill="#00000010"/><path d="M0,0 C-5.9,-1.3 -5.9,-7.9 0,-11.2 C5.9,-7.9 5.9,-1.3 0,0 Z" transform="rotate(52.0)" fill="url(#rose)"/><path d="M0,0 C-5.9,-1.3 -5.9,-7.9 0,-11.2 C5.9,-7.9 5.9,-1.3 0,0 Z" transform="rotate(52.0) scale(0.9)" fill="#00000010"/><path d="M0,0 C-5.9,-1.3 -5.9,-7.9 0,-11.2 C5.9,-7.9 5.9,-1.3 0,0 Z" transform="rotate(112.0)" fill="url(#rose)"/><path d="M0,0 C-5.9,-1.3 -5.9,-7.9 0,-11.2 C5.9,-7.9 5.9,-1.3 0,0 Z" transform="rotate(112.0) scale(0.9)" fill="#00000010"/><path d="M0,0 C-5.9,-1.3 -5.9,-7.9 0,-11.2 C5.9,-7.9 5.9,-1.3 0,0 Z" transform="rotate(172.0)" fill="url(#rose)"/><path d="M0,0 C-5.9,-1.3 -5.9,-7.9 0,-11.2 C5.9,-7.9 5.9,-1.3 0,0 Z" transform="rotate(172.0) scale(0.9)" fill="#00000010"/><path d="M0,0 C-5.9,-1.3 -5.9,-7.9 0,-11.2 C5.9,-7.9 5.9,-1.3 0,0 Z" transform="rotate(232.0)" fill="url(#rose)"/><path d="M0,0 C-5.9,-1.3 -5.9,-7.9 0,-11.2 C5.9,-7.9 5.9,-1.3 0,0 Z" transform="rotate(232.0) scale(0.9)" fill="#00000010"/><path d="M0,0 C-5.9,-1.3 -5.9,-7.9 0,-11.2 C5.9,-7.9 5.9,-1.3 0,0 Z" transform="rotate(292.0)" fill="url(#rose)"/><path d="M0,0 C-5.9,-1.3 -5.9,-7.9 0,-11.2 C5.9,-7.9 5.9,-1.3 0,0 Z" transform="rotate(292.0) scale(0.9)" fill="#00000010"/><path d="M0,0 C-5.9,-1.3 -5.9,-7.9 0,-11.2 C5.9,-7.9 5.9,-1.3 0,0 Z" transform="rotate(352.0)" fill="url(#rose)"/><path d="M0,0 C-5.9,-1.3 -5.9,-7.9 0,-11.2 C5.9,-7.9 5.9,-1.3 0,0 Z" transform="rotate(352.0) scale(0.9)" fill="#00000010"/><path d="M0,0 C-3.9,-0.9 -3.9,-5.2 0,-7.5 C3.9,-5.2 3.9,-0.9 0,0 Z" transform="rotate(70.0)" fill="url(#rose)"/><path d="M0,0 C-3.9,-0.9 -3.9,-5.2 0,-7.5 C3.9,-5.2 3.9,-0.9 0,0 Z" transform="rotate(70.0) scale(0.9)" fill="#00000010"/><path d="M0,0 C-3.9,-0.9 -3.9,-5.2 0,-7.5 C3.9,-5.2 3.9,-0.9 0,0 Z" transform="rotate(130.0)" fill="url(#rose)"/><path d="M0,0 C-3.9,-0.9 -3.9,-5.2 0,-7.5 C3.9,-5.2 3.9,-0.9 0,0 Z" transform="rotate(130.0) scale(0.9)" fill="#00000010"/><path d="M0,0 C-3.9,-0.9 -3.9,-5.2 0,-7.5 C3.9,-5.2 3.9,-0.9 0,0 Z" transform="rotate(190.0)" fill="url(#rose)"/><path d="M0,0 C-3.9,-0.9 -3.9,-5.2 0,-7.5 C3.9,-5.2 3.9,-0.9 0,0 Z" transform="rotate(190.0) scale(0.9)" fill="#00000010"/><path d="M0,0 C-3.9,-0.9 -3.9,-5.2 0,-7.5 C3.9,-5.2 3.9,-0.9 0,0 Z" transform="rotate(250.0)" fill="url(#rose)"/><path d="M0,0 C-3.9,-0.9 -3.9,-5.2 0,-7.5 C3.9,-5.2 3.9,-0.9 0,0 Z" transform="rotate(250.0) scale(0.9)" fill="#00000010"/><path d="M0,0 C-3.9,-0.9 -3.9,-5.2 0,-7.5 C3.9,-5.2 3.9,-0.9 0,0 Z" transform="rotate(310.0)" fill="url(#rose)"/><path d="M0,0 C-3.9,-0.9 -3.9,-5.2 0,-7.5 C3.9,-5.2 3.9,-0.9 0,0 Z" transform="rotate(310.0) scale(0.9)" fill="#00000010"/><path d="M0,0 C-3.9,-0.9 -3.9,-5.2 0,-7.5 C3.9,-5.2 3.9,-0.9 0,0 Z" transform="rotate(370.0)" fill="url(#rose)"/><path d="M0,0 C-3.9,-0.9 -3.9,-5.2 0,-7.5 C3.9,-5.2 3.9,-0.9 0,0 Z" transform="rotate(370.0) scale(0.9)" fill="#00000010"/><circle r="5.0" fill="url(#roseC)"/><path d="M0,-3.5 A 3.0 3.0 0 1 1 -2.8,1.8" fill="none" stroke="#47607a" stroke-width="1.2" opacity="0.5"/></g><g transform="translate(-34,10) rotate(-24)" filter="url(#soft)"><circle r="15.3" fill="#5f7a95" opacity="0.25"/><path d="M0,0 C-8.8,-2.0 -8.8,-11.9 0,-17.0 C8.8,-11.9 8.8,-2.0 0,0 Z" transform="rotate(0.0)" fill="url(#rose)"/><path d="M0,0 C-8.8,-2.0 -8.8,-11.9 0,-17.0 C8.8,-11.9 8.8,-2.0 0,0 Z" transform="rotate(0.0) scale(0.9)" fill="#00000010"/><path d="M0,0 C-8.8,-2.0 -8.8,-11.9 0,-17.0 C8.8,-11.9 8.8,-2.0 0,0 Z" transform="rotate(60.0)" fill="url(#rose)"/><path d="M0,0 C-8.8,-2.0 -8.8,-11.9 0,-17.0 C8.8,-11.9 8.8,-2.0 0,0 Z" transform="rotate(60.0) scale(0.9)" fill="#00000010"/><path d="M0,0 C-8.8,-2.0 -8.8,-11.9 0,-17.0 C8.8,-11.9 8.8,-2.0 0,0 Z" transform="rotate(120.0)" fill="url(#rose)"/><path d="M0,0 C-8.8,-2.0 -8.8,-11.9 0,-17.0 C8.8,-11.9 8.8,-2.0 0,0 Z" transform="rotate(120.0) scale(0.9)" fill="#00000010"/><path d="M0,0 C-8.8,-2.0 -8.8,-11.9 0,-17.0 C8.8,-11.9 8.8,-2.0 0,0 Z" transform="rotate(180.0)" fill="url(#rose)"/><path d="M0,0 C-8.8,-2.0 -8.8,-11.9 0,-17.0 C8.8,-11.9 8.8,-2.0 0,0 Z" transform="rotate(180.0) scale(0.9)" fill="#00000010"/><path d="M0,0 C-8.8,-2.0 -8.8,-11.9 0,-17.0 C8.8,-11.9 8.8,-2.0 0,0 Z" transform="rotate(240.0)" fill="url(#rose)"/><path d="M0,0 C-8.8,-2.0 -8.8,-11.9 0,-17.0 C8.8,-11.9 8.8,-2.0 0,0 Z" transform="rotate(240.0) scale(0.9)" fill="#00000010"/><path d="M0,0 C-8.8,-2.0 -8.8,-11.9 0,-17.0 C8.8,-11.9 8.8,-2.0 0,0 Z" transform="rotate(300.0)" fill="url(#rose)"/><path d="M0,0 C-8.8,-2.0 -8.8,-11.9 0,-17.0 C8.8,-11.9 8.8,-2.0 0,0 Z" transform="rotate(300.0) scale(0.9)" fill="#00000010"/><path d="M0,0 C-7.1,-1.6 -7.1,-9.5 0,-13.6 C7.1,-9.5 7.1,-1.6 0,0 Z" transform="rotate(18.0)" fill="url(#rose)"/><path d="M0,0 C-7.1,-1.6 -7.1,-9.5 0,-13.6 C7.1,-9.5 7.1,-1.6 0,0 Z" transform="rotate(18.0) scale(0.9)" fill="#00000010"/><path d="M0,0 C-7.1,-1.6 -7.1,-9.5 0,-13.6 C7.1,-9.5 7.1,-1.6 0,0 Z" transform="rotate(78.0)" fill="url(#rose)"/><path d="M0,0 C-7.1,-1.6 -7.1,-9.5 0,-13.6 C7.1,-9.5 7.1,-1.6 0,0 Z" transform="rotate(78.0) scale(0.9)" fill="#00000010"/><path d="M0,0 C-7.1,-1.6 -7.1,-9.5 0,-13.6 C7.1,-9.5 7.1,-1.6 0,0 Z" transform="rotate(138.0)" fill="url(#rose)"/><path d="M0,0 C-7.1,-1.6 -7.1,-9.5 0,-13.6 C7.1,-9.5 7.1,-1.6 0,0 Z" transform="rotate(138.0) scale(0.9)" fill="#00000010"/><path d="M0,0 C-7.1,-1.6 -7.1,-9.5 0,-13.6 C7.1,-9.5 7.1,-1.6 0,0 Z" transform="rotate(198.0)" fill="url(#rose)"/><path d="M0,0 C-7.1,-1.6 -7.1,-9.5 0,-13.6 C7.1,-9.5 7.1,-1.6 0,0 Z" transform="rotate(198.0) scale(0.9)" fill="#00000010"/><path d="M0,0 C-7.1,-1.6 -7.1,-9.5 0,-13.6 C7.1,-9.5 7.1,-1.6 0,0 Z" transform="rotate(258.0)" fill="url(#rose)"/><path d="M0,0 C-7.1,-1.6 -7.1,-9.5 0,-13.6 C7.1,-9.5 7.1,-1.6 0,0 Z" transform="rotate(258.0) scale(0.9)" fill="#00000010"/><path d="M0,0 C-7.1,-1.6 -7.1,-9.5 0,-13.6 C7.1,-9.5 7.1,-1.6 0,0 Z" transform="rotate(318.0)" fill="url(#rose)"/><path d="M0,0 C-7.1,-1.6 -7.1,-9.5 0,-13.6 C7.1,-9.5 7.1,-1.6 0,0 Z" transform="rotate(318.0) scale(0.9)" fill="#00000010"/><path d="M0,0 C-5.5,-1.3 -5.5,-7.4 0,-10.5 C5.5,-7.4 5.5,-1.3 0,0 Z" transform="rotate(34.0)" fill="url(#rose)"/><path d="M0,0 C-5.5,-1.3 -5.5,-7.4 0,-10.5 C5.5,-7.4 5.5,-1.3 0,0 Z" transform="rotate(34.0) scale(0.9)" fill="#00000010"/><path d="M0,0 C-5.5,-1.3 -5.5,-7.4 0,-10.5 C5.5,-7.4 5.5,-1.3 0,0 Z" transform="rotate(94.0)" fill="url(#rose)"/><path d="M0,0 C-5.5,-1.3 -5.5,-7.4 0,-10.5 C5.5,-7.4 5.5,-1.3 0,0 Z" transform="rotate(94.0) scale(0.9)" fill="#00000010"/><path d="M0,0 C-5.5,-1.3 -5.5,-7.4 0,-10.5 C5.5,-7.4 5.5,-1.3 0,0 Z" transform="rotate(154.0)" fill="url(#rose)"/><path d="M0,0 C-5.5,-1.3 -5.5,-7.4 0,-10.5 C5.5,-7.4 5.5,-1.3 0,0 Z" transform="rotate(154.0) scale(0.9)" fill="#00000010"/><path d="M0,0 C-5.5,-1.3 -5.5,-7.4 0,-10.5 C5.5,-7.4 5.5,-1.3 0,0 Z" transform="rotate(214.0)" fill="url(#rose)"/><path d="M0,0 C-5.5,-1.3 -5.5,-7.4 0,-10.5 C5.5,-7.4 5.5,-1.3 0,0 Z" transform="rotate(214.0) scale(0.9)" fill="#00000010"/><path d="M0,0 C-5.5,-1.3 -5.5,-7.4 0,-10.5 C5.5,-7.4 5.5,-1.3 0,0 Z" transform="rotate(274.0)" fill="url(#rose)"/><path d="M0,0 C-5.5,-1.3 -5.5,-7.4 0,-10.5 C5.5,-7.4 5.5,-1.3 0,0 Z" transform="rotate(274.0) scale(0.9)" fill="#00000010"/><path d="M0,0 C-5.5,-1.3 -5.5,-7.4 0,-10.5 C5.5,-7.4 5.5,-1.3 0,0 Z" transform="rotate(334.0)" fill="url(#rose)"/><path d="M0,0 C-5.5,-1.3 -5.5,-7.4 0,-10.5 C5.5,-7.4 5.5,-1.3 0,0 Z" transform="rotate(334.0) scale(0.9)" fill="#00000010"/><path d="M0,0 C-4.0,-0.9 -4.0,-5.4 0,-7.7 C4.0,-5.4 4.0,-0.9 0,0 Z" transform="rotate(52.0)" fill="url(#rose)"/><path d="M0,0 C-4.0,-0.9 -4.0,-5.4 0,-7.7 C4.0,-5.4 4.0,-0.9 0,0 Z" transform="rotate(52.0) scale(0.9)" fill="#00000010"/><path d="M0,0 C-4.0,-0.9 -4.0,-5.4 0,-7.7 C4.0,-5.4 4.0,-0.9 0,0 Z" transform="rotate(112.0)" fill="url(#rose)"/><path d="M0,0 C-4.0,-0.9 -4.0,-5.4 0,-7.7 C4.0,-5.4 4.0,-0.9 0,0 Z" transform="rotate(112.0) scale(0.9)" fill="#00000010"/><path d="M0,0 C-4.0,-0.9 -4.0,-5.4 0,-7.7 C4.0,-5.4 4.0,-0.9 0,0 Z" transform="rotate(172.0)" fill="url(#rose)"/><path d="M0,0 C-4.0,-0.9 -4.0,-5.4 0,-7.7 C4.0,-5.4 4.0,-0.9 0,0 Z" transform="rotate(172.0) scale(0.9)" fill="#00000010"/><path d="M0,0 C-4.0,-0.9 -4.0,-5.4 0,-7.7 C4.0,-5.4 4.0,-0.9 0,0 Z" transform="rotate(232.0)" fill="url(#rose)"/><path d="M0,0 C-4.0,-0.9 -4.0,-5.4 0,-7.7 C4.0,-5.4 4.0,-0.9 0,0 Z" transform="rotate(232.0) scale(0.9)" fill="#00000010"/><path d="M0,0 C-4.0,-0.9 -4.0,-5.4 0,-7.7 C4.0,-5.4 4.0,-0.9 0,0 Z" transform="rotate(292.0)" fill="url(#rose)"/><path d="M0,0 C-4.0,-0.9 -4.0,-5.4 0,-7.7 C4.0,-5.4 4.0,-0.9 0,0 Z" transform="rotate(292.0) scale(0.9)" fill="#00000010"/><path d="M0,0 C-4.0,-0.9 -4.0,-5.4 0,-7.7 C4.0,-5.4 4.0,-0.9 0,0 Z" transform="rotate(352.0)" fill="url(#rose)"/><path d="M0,0 C-4.0,-0.9 -4.0,-5.4 0,-7.7 C4.0,-5.4 4.0,-0.9 0,0 Z" transform="rotate(352.0) scale(0.9)" fill="#00000010"/><path d="M0,0 C-2.7,-0.6 -2.7,-3.6 0,-5.1 C2.7,-3.6 2.7,-0.6 0,0 Z" transform="rotate(70.0)" fill="url(#rose)"/><path d="M0,0 C-2.7,-0.6 -2.7,-3.6 0,-5.1 C2.7,-3.6 2.7,-0.6 0,0 Z" transform="rotate(70.0) scale(0.9)" fill="#00000010"/><path d="M0,0 C-2.7,-0.6 -2.7,-3.6 0,-5.1 C2.7,-3.6 2.7,-0.6 0,0 Z" transform="rotate(130.0)" fill="url(#rose)"/><path d="M0,0 C-2.7,-0.6 -2.7,-3.6 0,-5.1 C2.7,-3.6 2.7,-0.6 0,0 Z" transform="rotate(130.0) scale(0.9)" fill="#00000010"/><path d="M0,0 C-2.7,-0.6 -2.7,-3.6 0,-5.1 C2.7,-3.6 2.7,-0.6 0,0 Z" transform="rotate(190.0)" fill="url(#rose)"/><path d="M0,0 C-2.7,-0.6 -2.7,-3.6 0,-5.1 C2.7,-3.6 2.7,-0.6 0,0 Z" transform="rotate(190.0) scale(0.9)" fill="#00000010"/><path d="M0,0 C-2.7,-0.6 -2.7,-3.6 0,-5.1 C2.7,-3.6 2.7,-0.6 0,0 Z" transform="rotate(250.0)" fill="url(#rose)"/><path d="M0,0 C-2.7,-0.6 -2.7,-3.6 0,-5.1 C2.7,-3.6 2.7,-0.6 0,0 Z" transform="rotate(250.0) scale(0.9)" fill="#00000010"/><path d="M0,0 C-2.7,-0.6 -2.7,-3.6 0,-5.1 C2.7,-3.6 2.7,-0.6 0,0 Z" transform="rotate(310.0)" fill="url(#rose)"/><path d="M0,0 C-2.7,-0.6 -2.7,-3.6 0,-5.1 C2.7,-3.6 2.7,-0.6 0,0 Z" transform="rotate(310.0) scale(0.9)" fill="#00000010"/><path d="M0,0 C-2.7,-0.6 -2.7,-3.6 0,-5.1 C2.7,-3.6 2.7,-0.6 0,0 Z" transform="rotate(370.0)" fill="url(#rose)"/><path d="M0,0 C-2.7,-0.6 -2.7,-3.6 0,-5.1 C2.7,-3.6 2.7,-0.6 0,0 Z" transform="rotate(370.0) scale(0.9)" fill="#00000010"/><circle r="3.4" fill="url(#roseC)"/><path d="M0,-2.4 A 2.0 2.0 0 1 1 -1.9,1.2" fill="none" stroke="#47607a" stroke-width="1.0" opacity="0.5"/></g><g transform="translate(31,4) rotate(28)" filter="url(#soft)"><circle r="17.1" fill="#5f7a95" opacity="0.25"/><path d="M0,0 C-9.9,-2.3 -9.9,-13.3 0,-19.0 C9.9,-13.3 9.9,-2.3 0,0 Z" transform="rotate(0.0)" fill="url(#rose)"/><path d="M0,0 C-9.9,-2.3 -9.9,-13.3 0,-19.0 C9.9,-13.3 9.9,-2.3 0,0 Z" transform="rotate(0.0) scale(0.9)" fill="#00000010"/><path d="M0,0 C-9.9,-2.3 -9.9,-13.3 0,-19.0 C9.9,-13.3 9.9,-2.3 0,0 Z" transform="rotate(60.0)" fill="url(#rose)"/><path d="M0,0 C-9.9,-2.3 -9.9,-13.3 0,-19.0 C9.9,-13.3 9.9,-2.3 0,0 Z" transform="rotate(60.0) scale(0.9)" fill="#00000010"/><path d="M0,0 C-9.9,-2.3 -9.9,-13.3 0,-19.0 C9.9,-13.3 9.9,-2.3 0,0 Z" transform="rotate(120.0)" fill="url(#rose)"/><path d="M0,0 C-9.9,-2.3 -9.9,-13.3 0,-19.0 C9.9,-13.3 9.9,-2.3 0,0 Z" transform="rotate(120.0) scale(0.9)" fill="#00000010"/><path d="M0,0 C-9.9,-2.3 -9.9,-13.3 0,-19.0 C9.9,-13.3 9.9,-2.3 0,0 Z" transform="rotate(180.0)" fill="url(#rose)"/><path d="M0,0 C-9.9,-2.3 -9.9,-13.3 0,-19.0 C9.9,-13.3 9.9,-2.3 0,0 Z" transform="rotate(180.0) scale(0.9)" fill="#00000010"/><path d="M0,0 C-9.9,-2.3 -9.9,-13.3 0,-19.0 C9.9,-13.3 9.9,-2.3 0,0 Z" transform="rotate(240.0)" fill="url(#rose)"/><path d="M0,0 C-9.9,-2.3 -9.9,-13.3 0,-19.0 C9.9,-13.3 9.9,-2.3 0,0 Z" transform="rotate(240.0) scale(0.9)" fill="#00000010"/><path d="M0,0 C-9.9,-2.3 -9.9,-13.3 0,-19.0 C9.9,-13.3 9.9,-2.3 0,0 Z" transform="rotate(300.0)" fill="url(#rose)"/><path d="M0,0 C-9.9,-2.3 -9.9,-13.3 0,-19.0 C9.9,-13.3 9.9,-2.3 0,0 Z" transform="rotate(300.0) scale(0.9)" fill="#00000010"/><path d="M0,0 C-7.9,-1.8 -7.9,-10.6 0,-15.2 C7.9,-10.6 7.9,-1.8 0,0 Z" transform="rotate(18.0)" fill="url(#rose)"/><path d="M0,0 C-7.9,-1.8 -7.9,-10.6 0,-15.2 C7.9,-10.6 7.9,-1.8 0,0 Z" transform="rotate(18.0) scale(0.9)" fill="#00000010"/><path d="M0,0 C-7.9,-1.8 -7.9,-10.6 0,-15.2 C7.9,-10.6 7.9,-1.8 0,0 Z" transform="rotate(78.0)" fill="url(#rose)"/><path d="M0,0 C-7.9,-1.8 -7.9,-10.6 0,-15.2 C7.9,-10.6 7.9,-1.8 0,0 Z" transform="rotate(78.0) scale(0.9)" fill="#00000010"/><path d="M0,0 C-7.9,-1.8 -7.9,-10.6 0,-15.2 C7.9,-10.6 7.9,-1.8 0,0 Z" transform="rotate(138.0)" fill="url(#rose)"/><path d="M0,0 C-7.9,-1.8 -7.9,-10.6 0,-15.2 C7.9,-10.6 7.9,-1.8 0,0 Z" transform="rotate(138.0) scale(0.9)" fill="#00000010"/><path d="M0,0 C-7.9,-1.8 -7.9,-10.6 0,-15.2 C7.9,-10.6 7.9,-1.8 0,0 Z" transform="rotate(198.0)" fill="url(#rose)"/><path d="M0,0 C-7.9,-1.8 -7.9,-10.6 0,-15.2 C7.9,-10.6 7.9,-1.8 0,0 Z" transform="rotate(198.0) scale(0.9)" fill="#00000010"/><path d="M0,0 C-7.9,-1.8 -7.9,-10.6 0,-15.2 C7.9,-10.6 7.9,-1.8 0,0 Z" transform="rotate(258.0)" fill="url(#rose)"/><path d="M0,0 C-7.9,-1.8 -7.9,-10.6 0,-15.2 C7.9,-10.6 7.9,-1.8 0,0 Z" transform="rotate(258.0) scale(0.9)" fill="#00000010"/><path d="M0,0 C-7.9,-1.8 -7.9,-10.6 0,-15.2 C7.9,-10.6 7.9,-1.8 0,0 Z" transform="rotate(318.0)" fill="url(#rose)"/><path d="M0,0 C-7.9,-1.8 -7.9,-10.6 0,-15.2 C7.9,-10.6 7.9,-1.8 0,0 Z" transform="rotate(318.0) scale(0.9)" fill="#00000010"/><path d="M0,0 C-6.1,-1.4 -6.1,-8.2 0,-11.8 C6.1,-8.2 6.1,-1.4 0,0 Z" transform="rotate(34.0)" fill="url(#rose)"/><path d="M0,0 C-6.1,-1.4 -6.1,-8.2 0,-11.8 C6.1,-8.2 6.1,-1.4 0,0 Z" transform="rotate(34.0) scale(0.9)" fill="#00000010"/><path d="M0,0 C-6.1,-1.4 -6.1,-8.2 0,-11.8 C6.1,-8.2 6.1,-1.4 0,0 Z" transform="rotate(94.0)" fill="url(#rose)"/><path d="M0,0 C-6.1,-1.4 -6.1,-8.2 0,-11.8 C6.1,-8.2 6.1,-1.4 0,0 Z" transform="rotate(94.0) scale(0.9)" fill="#00000010"/><path d="M0,0 C-6.1,-1.4 -6.1,-8.2 0,-11.8 C6.1,-8.2 6.1,-1.4 0,0 Z" transform="rotate(154.0)" fill="url(#rose)"/><path d="M0,0 C-6.1,-1.4 -6.1,-8.2 0,-11.8 C6.1,-8.2 6.1,-1.4 0,0 Z" transform="rotate(154.0) scale(0.9)" fill="#00000010"/><path d="M0,0 C-6.1,-1.4 -6.1,-8.2 0,-11.8 C6.1,-8.2 6.1,-1.4 0,0 Z" transform="rotate(214.0)" fill="url(#rose)"/><path d="M0,0 C-6.1,-1.4 -6.1,-8.2 0,-11.8 C6.1,-8.2 6.1,-1.4 0,0 Z" transform="rotate(214.0) scale(0.9)" fill="#00000010"/><path d="M0,0 C-6.1,-1.4 -6.1,-8.2 0,-11.8 C6.1,-8.2 6.1,-1.4 0,0 Z" transform="rotate(274.0)" fill="url(#rose)"/><path d="M0,0 C-6.1,-1.4 -6.1,-8.2 0,-11.8 C6.1,-8.2 6.1,-1.4 0,0 Z" transform="rotate(274.0) scale(0.9)" fill="#00000010"/><path d="M0,0 C-6.1,-1.4 -6.1,-8.2 0,-11.8 C6.1,-8.2 6.1,-1.4 0,0 Z" transform="rotate(334.0)" fill="url(#rose)"/><path d="M0,0 C-6.1,-1.4 -6.1,-8.2 0,-11.8 C6.1,-8.2 6.1,-1.4 0,0 Z" transform="rotate(334.0) scale(0.9)" fill="#00000010"/><path d="M0,0 C-4.4,-1.0 -4.4,-6.0 0,-8.6 C4.4,-6.0 4.4,-1.0 0,0 Z" transform="rotate(52.0)" fill="url(#rose)"/><path d="M0,0 C-4.4,-1.0 -4.4,-6.0 0,-8.6 C4.4,-6.0 4.4,-1.0 0,0 Z" transform="rotate(52.0) scale(0.9)" fill="#00000010"/><path d="M0,0 C-4.4,-1.0 -4.4,-6.0 0,-8.6 C4.4,-6.0 4.4,-1.0 0,0 Z" transform="rotate(112.0)" fill="url(#rose)"/><path d="M0,0 C-4.4,-1.0 -4.4,-6.0 0,-8.6 C4.4,-6.0 4.4,-1.0 0,0 Z" transform="rotate(112.0) scale(0.9)" fill="#00000010"/><path d="M0,0 C-4.4,-1.0 -4.4,-6.0 0,-8.6 C4.4,-6.0 4.4,-1.0 0,0 Z" transform="rotate(172.0)" fill="url(#rose)"/><path d="M0,0 C-4.4,-1.0 -4.4,-6.0 0,-8.6 C4.4,-6.0 4.4,-1.0 0,0 Z" transform="rotate(172.0) scale(0.9)" fill="#00000010"/><path d="M0,0 C-4.4,-1.0 -4.4,-6.0 0,-8.6 C4.4,-6.0 4.4,-1.0 0,0 Z" transform="rotate(232.0)" fill="url(#rose)"/><path d="M0,0 C-4.4,-1.0 -4.4,-6.0 0,-8.6 C4.4,-6.0 4.4,-1.0 0,0 Z" transform="rotate(232.0) scale(0.9)" fill="#00000010"/><path d="M0,0 C-4.4,-1.0 -4.4,-6.0 0,-8.6 C4.4,-6.0 4.4,-1.0 0,0 Z" transform="rotate(292.0)" fill="url(#rose)"/><path d="M0,0 C-4.4,-1.0 -4.4,-6.0 0,-8.6 C4.4,-6.0 4.4,-1.0 0,0 Z" transform="rotate(292.0) scale(0.9)" fill="#00000010"/><path d="M0,0 C-4.4,-1.0 -4.4,-6.0 0,-8.6 C4.4,-6.0 4.4,-1.0 0,0 Z" transform="rotate(352.0)" fill="url(#rose)"/><path d="M0,0 C-4.4,-1.0 -4.4,-6.0 0,-8.6 C4.4,-6.0 4.4,-1.0 0,0 Z" transform="rotate(352.0) scale(0.9)" fill="#00000010"/><path d="M0,0 C-3.0,-0.7 -3.0,-4.0 0,-5.7 C3.0,-4.0 3.0,-0.7 0,0 Z" transform="rotate(70.0)" fill="url(#rose)"/><path d="M0,0 C-3.0,-0.7 -3.0,-4.0 0,-5.7 C3.0,-4.0 3.0,-0.7 0,0 Z" transform="rotate(70.0) scale(0.9)" fill="#00000010"/><path d="M0,0 C-3.0,-0.7 -3.0,-4.0 0,-5.7 C3.0,-4.0 3.0,-0.7 0,0 Z" transform="rotate(130.0)" fill="url(#rose)"/><path d="M0,0 C-3.0,-0.7 -3.0,-4.0 0,-5.7 C3.0,-4.0 3.0,-0.7 0,0 Z" transform="rotate(130.0) scale(0.9)" fill="#00000010"/><path d="M0,0 C-3.0,-0.7 -3.0,-4.0 0,-5.7 C3.0,-4.0 3.0,-0.7 0,0 Z" transform="rotate(190.0)" fill="url(#rose)"/><path d="M0,0 C-3.0,-0.7 -3.0,-4.0 0,-5.7 C3.0,-4.0 3.0,-0.7 0,0 Z" transform="rotate(190.0) scale(0.9)" fill="#00000010"/><path d="M0,0 C-3.0,-0.7 -3.0,-4.0 0,-5.7 C3.0,-4.0 3.0,-0.7 0,0 Z" transform="rotate(250.0)" fill="url(#rose)"/><path d="M0,0 C-3.0,-0.7 -3.0,-4.0 0,-5.7 C3.0,-4.0 3.0,-0.7 0,0 Z" transform="rotate(250.0) scale(0.9)" fill="#00000010"/><path d="M0,0 C-3.0,-0.7 -3.0,-4.0 0,-5.7 C3.0,-4.0 3.0,-0.7 0,0 Z" transform="rotate(310.0)" fill="url(#rose)"/><path d="M0,0 C-3.0,-0.7 -3.0,-4.0 0,-5.7 C3.0,-4.0 3.0,-0.7 0,0 Z" transform="rotate(310.0) scale(0.9)" fill="#00000010"/><path d="M0,0 C-3.0,-0.7 -3.0,-4.0 0,-5.7 C3.0,-4.0 3.0,-0.7 0,0 Z" transform="rotate(370.0)" fill="url(#rose)"/><path d="M0,0 C-3.0,-0.7 -3.0,-4.0 0,-5.7 C3.0,-4.0 3.0,-0.7 0,0 Z" transform="rotate(370.0) scale(0.9)" fill="#00000010"/><circle r="3.8" fill="url(#roseC)"/><path d="M0,-2.7 A 2.3 2.3 0 1 1 -2.1,1.3" fill="none" stroke="#47607a" stroke-width="1.0" opacity="0.5"/></g><g transform="translate(3,-32) rotate(4)" filter="url(#soft)"><circle r="12.6" fill="#5f7a95" opacity="0.25"/><path d="M0,0 C-7.3,-1.7 -7.3,-9.8 0,-14.0 C7.3,-9.8 7.3,-1.7 0,0 Z" transform="rotate(0.0)" fill="url(#rose)"/><path d="M0,0 C-7.3,-1.7 -7.3,-9.8 0,-14.0 C7.3,-9.8 7.3,-1.7 0,0 Z" transform="rotate(0.0) scale(0.9)" fill="#00000010"/><path d="M0,0 C-7.3,-1.7 -7.3,-9.8 0,-14.0 C7.3,-9.8 7.3,-1.7 0,0 Z" transform="rotate(60.0)" fill="url(#rose)"/><path d="M0,0 C-7.3,-1.7 -7.3,-9.8 0,-14.0 C7.3,-9.8 7.3,-1.7 0,0 Z" transform="rotate(60.0) scale(0.9)" fill="#00000010"/><path d="M0,0 C-7.3,-1.7 -7.3,-9.8 0,-14.0 C7.3,-9.8 7.3,-1.7 0,0 Z" transform="rotate(120.0)" fill="url(#rose)"/><path d="M0,0 C-7.3,-1.7 -7.3,-9.8 0,-14.0 C7.3,-9.8 7.3,-1.7 0,0 Z" transform="rotate(120.0) scale(0.9)" fill="#00000010"/><path d="M0,0 C-7.3,-1.7 -7.3,-9.8 0,-14.0 C7.3,-9.8 7.3,-1.7 0,0 Z" transform="rotate(180.0)" fill="url(#rose)"/><path d="M0,0 C-7.3,-1.7 -7.3,-9.8 0,-14.0 C7.3,-9.8 7.3,-1.7 0,0 Z" transform="rotate(180.0) scale(0.9)" fill="#00000010"/><path d="M0,0 C-7.3,-1.7 -7.3,-9.8 0,-14.0 C7.3,-9.8 7.3,-1.7 0,0 Z" transform="rotate(240.0)" fill="url(#rose)"/><path d="M0,0 C-7.3,-1.7 -7.3,-9.8 0,-14.0 C7.3,-9.8 7.3,-1.7 0,0 Z" transform="rotate(240.0) scale(0.9)" fill="#00000010"/><path d="M0,0 C-7.3,-1.7 -7.3,-9.8 0,-14.0 C7.3,-9.8 7.3,-1.7 0,0 Z" transform="rotate(300.0)" fill="url(#rose)"/><path d="M0,0 C-7.3,-1.7 -7.3,-9.8 0,-14.0 C7.3,-9.8 7.3,-1.7 0,0 Z" transform="rotate(300.0) scale(0.9)" fill="#00000010"/><path d="M0,0 C-5.8,-1.3 -5.8,-7.8 0,-11.2 C5.8,-7.8 5.8,-1.3 0,0 Z" transform="rotate(18.0)" fill="url(#rose)"/><path d="M0,0 C-5.8,-1.3 -5.8,-7.8 0,-11.2 C5.8,-7.8 5.8,-1.3 0,0 Z" transform="rotate(18.0) scale(0.9)" fill="#00000010"/><path d="M0,0 C-5.8,-1.3 -5.8,-7.8 0,-11.2 C5.8,-7.8 5.8,-1.3 0,0 Z" transform="rotate(78.0)" fill="url(#rose)"/><path d="M0,0 C-5.8,-1.3 -5.8,-7.8 0,-11.2 C5.8,-7.8 5.8,-1.3 0,0 Z" transform="rotate(78.0) scale(0.9)" fill="#00000010"/><path d="M0,0 C-5.8,-1.3 -5.8,-7.8 0,-11.2 C5.8,-7.8 5.8,-1.3 0,0 Z" transform="rotate(138.0)" fill="url(#rose)"/><path d="M0,0 C-5.8,-1.3 -5.8,-7.8 0,-11.2 C5.8,-7.8 5.8,-1.3 0,0 Z" transform="rotate(138.0) scale(0.9)" fill="#00000010"/><path d="M0,0 C-5.8,-1.3 -5.8,-7.8 0,-11.2 C5.8,-7.8 5.8,-1.3 0,0 Z" transform="rotate(198.0)" fill="url(#rose)"/><path d="M0,0 C-5.8,-1.3 -5.8,-7.8 0,-11.2 C5.8,-7.8 5.8,-1.3 0,0 Z" transform="rotate(198.0) scale(0.9)" fill="#00000010"/><path d="M0,0 C-5.8,-1.3 -5.8,-7.8 0,-11.2 C5.8,-7.8 5.8,-1.3 0,0 Z" transform="rotate(258.0)" fill="url(#rose)"/><path d="M0,0 C-5.8,-1.3 -5.8,-7.8 0,-11.2 C5.8,-7.8 5.8,-1.3 0,0 Z" transform="rotate(258.0) scale(0.9)" fill="#00000010"/><path d="M0,0 C-5.8,-1.3 -5.8,-7.8 0,-11.2 C5.8,-7.8 5.8,-1.3 0,0 Z" transform="rotate(318.0)" fill="url(#rose)"/><path d="M0,0 C-5.8,-1.3 -5.8,-7.8 0,-11.2 C5.8,-7.8 5.8,-1.3 0,0 Z" transform="rotate(318.0) scale(0.9)" fill="#00000010"/><path d="M0,0 C-4.5,-1.0 -4.5,-6.1 0,-8.7 C4.5,-6.1 4.5,-1.0 0,0 Z" transform="rotate(34.0)" fill="url(#rose)"/><path d="M0,0 C-4.5,-1.0 -4.5,-6.1 0,-8.7 C4.5,-6.1 4.5,-1.0 0,0 Z" transform="rotate(34.0) scale(0.9)" fill="#00000010"/><path d="M0,0 C-4.5,-1.0 -4.5,-6.1 0,-8.7 C4.5,-6.1 4.5,-1.0 0,0 Z" transform="rotate(94.0)" fill="url(#rose)"/><path d="M0,0 C-4.5,-1.0 -4.5,-6.1 0,-8.7 C4.5,-6.1 4.5,-1.0 0,0 Z" transform="rotate(94.0) scale(0.9)" fill="#00000010"/><path d="M0,0 C-4.5,-1.0 -4.5,-6.1 0,-8.7 C4.5,-6.1 4.5,-1.0 0,0 Z" transform="rotate(154.0)" fill="url(#rose)"/><path d="M0,0 C-4.5,-1.0 -4.5,-6.1 0,-8.7 C4.5,-6.1 4.5,-1.0 0,0 Z" transform="rotate(154.0) scale(0.9)" fill="#00000010"/><path d="M0,0 C-4.5,-1.0 -4.5,-6.1 0,-8.7 C4.5,-6.1 4.5,-1.0 0,0 Z" transform="rotate(214.0)" fill="url(#rose)"/><path d="M0,0 C-4.5,-1.0 -4.5,-6.1 0,-8.7 C4.5,-6.1 4.5,-1.0 0,0 Z" transform="rotate(214.0) scale(0.9)" fill="#00000010"/><path d="M0,0 C-4.5,-1.0 -4.5,-6.1 0,-8.7 C4.5,-6.1 4.5,-1.0 0,0 Z" transform="rotate(274.0)" fill="url(#rose)"/><path d="M0,0 C-4.5,-1.0 -4.5,-6.1 0,-8.7 C4.5,-6.1 4.5,-1.0 0,0 Z" transform="rotate(274.0) scale(0.9)" fill="#00000010"/><path d="M0,0 C-4.5,-1.0 -4.5,-6.1 0,-8.7 C4.5,-6.1 4.5,-1.0 0,0 Z" transform="rotate(334.0)" fill="url(#rose)"/><path d="M0,0 C-4.5,-1.0 -4.5,-6.1 0,-8.7 C4.5,-6.1 4.5,-1.0 0,0 Z" transform="rotate(334.0) scale(0.9)" fill="#00000010"/><path d="M0,0 C-3.3,-0.8 -3.3,-4.4 0,-6.3 C3.3,-4.4 3.3,-0.8 0,0 Z" transform="rotate(52.0)" fill="url(#rose)"/><path d="M0,0 C-3.3,-0.8 -3.3,-4.4 0,-6.3 C3.3,-4.4 3.3,-0.8 0,0 Z" transform="rotate(52.0) scale(0.9)" fill="#00000010"/><path d="M0,0 C-3.3,-0.8 -3.3,-4.4 0,-6.3 C3.3,-4.4 3.3,-0.8 0,0 Z" transform="rotate(112.0)" fill="url(#rose)"/><path d="M0,0 C-3.3,-0.8 -3.3,-4.4 0,-6.3 C3.3,-4.4 3.3,-0.8 0,0 Z" transform="rotate(112.0) scale(0.9)" fill="#00000010"/><path d="M0,0 C-3.3,-0.8 -3.3,-4.4 0,-6.3 C3.3,-4.4 3.3,-0.8 0,0 Z" transform="rotate(172.0)" fill="url(#rose)"/><path d="M0,0 C-3.3,-0.8 -3.3,-4.4 0,-6.3 C3.3,-4.4 3.3,-0.8 0,0 Z" transform="rotate(172.0) scale(0.9)" fill="#00000010"/><path d="M0,0 C-3.3,-0.8 -3.3,-4.4 0,-6.3 C3.3,-4.4 3.3,-0.8 0,0 Z" transform="rotate(232.0)" fill="url(#rose)"/><path d="M0,0 C-3.3,-0.8 -3.3,-4.4 0,-6.3 C3.3,-4.4 3.3,-0.8 0,0 Z" transform="rotate(232.0) scale(0.9)" fill="#00000010"/><path d="M0,0 C-3.3,-0.8 -3.3,-4.4 0,-6.3 C3.3,-4.4 3.3,-0.8 0,0 Z" transform="rotate(292.0)" fill="url(#rose)"/><path d="M0,0 C-3.3,-0.8 -3.3,-4.4 0,-6.3 C3.3,-4.4 3.3,-0.8 0,0 Z" transform="rotate(292.0) scale(0.9)" fill="#00000010"/><path d="M0,0 C-3.3,-0.8 -3.3,-4.4 0,-6.3 C3.3,-4.4 3.3,-0.8 0,0 Z" transform="rotate(352.0)" fill="url(#rose)"/><path d="M0,0 C-3.3,-0.8 -3.3,-4.4 0,-6.3 C3.3,-4.4 3.3,-0.8 0,0 Z" transform="rotate(352.0) scale(0.9)" fill="#00000010"/><path d="M0,0 C-2.2,-0.5 -2.2,-2.9 0,-4.2 C2.2,-2.9 2.2,-0.5 0,0 Z" transform="rotate(70.0)" fill="url(#rose)"/><path d="M0,0 C-2.2,-0.5 -2.2,-2.9 0,-4.2 C2.2,-2.9 2.2,-0.5 0,0 Z" transform="rotate(70.0) scale(0.9)" fill="#00000010"/><path d="M0,0 C-2.2,-0.5 -2.2,-2.9 0,-4.2 C2.2,-2.9 2.2,-0.5 0,0 Z" transform="rotate(130.0)" fill="url(#rose)"/><path d="M0,0 C-2.2,-0.5 -2.2,-2.9 0,-4.2 C2.2,-2.9 2.2,-0.5 0,0 Z" transform="rotate(130.0) scale(0.9)" fill="#00000010"/><path d="M0,0 C-2.2,-0.5 -2.2,-2.9 0,-4.2 C2.2,-2.9 2.2,-0.5 0,0 Z" transform="rotate(190.0)" fill="url(#rose)"/><path d="M0,0 C-2.2,-0.5 -2.2,-2.9 0,-4.2 C2.2,-2.9 2.2,-0.5 0,0 Z" transform="rotate(190.0) scale(0.9)" fill="#00000010"/><path d="M0,0 C-2.2,-0.5 -2.2,-2.9 0,-4.2 C2.2,-2.9 2.2,-0.5 0,0 Z" transform="rotate(250.0)" fill="url(#rose)"/><path d="M0,0 C-2.2,-0.5 -2.2,-2.9 0,-4.2 C2.2,-2.9 2.2,-0.5 0,0 Z" transform="rotate(250.0) scale(0.9)" fill="#00000010"/><path d="M0,0 C-2.2,-0.5 -2.2,-2.9 0,-4.2 C2.2,-2.9 2.2,-0.5 0,0 Z" transform="rotate(310.0)" fill="url(#rose)"/><path d="M0,0 C-2.2,-0.5 -2.2,-2.9 0,-4.2 C2.2,-2.9 2.2,-0.5 0,0 Z" transform="rotate(310.0) scale(0.9)" fill="#00000010"/><path d="M0,0 C-2.2,-0.5 -2.2,-2.9 0,-4.2 C2.2,-2.9 2.2,-0.5 0,0 Z" transform="rotate(370.0)" fill="url(#rose)"/><path d="M0,0 C-2.2,-0.5 -2.2,-2.9 0,-4.2 C2.2,-2.9 2.2,-0.5 0,0 Z" transform="rotate(370.0) scale(0.9)" fill="#00000010"/><circle r="2.8" fill="url(#roseC)"/><path d="M0,-2.0 A 1.7 1.7 0 1 1 -1.5,1.0" fill="none" stroke="#47607a" stroke-width="1.0" opacity="0.5"/></g><g transform="translate(-22,-22) scale(1.0)" filter="url(#soft)"><ellipse rx="3.2" ry="6.4" transform="rotate(0)" cx="0" cy="-4.5" fill="#fbf6ec"/><ellipse rx="3.2" ry="6.4" transform="rotate(72)" cx="0" cy="-4.5" fill="#fbf6ec"/><ellipse rx="3.2" ry="6.4" transform="rotate(144)" cx="0" cy="-4.5" fill="#fbf6ec"/><ellipse rx="3.2" ry="6.4" transform="rotate(216)" cx="0" cy="-4.5" fill="#fbf6ec"/><ellipse rx="3.2" ry="6.4" transform="rotate(288)" cx="0" cy="-4.5" fill="#fbf6ec"/><circle r="2.1" fill="#e6c98f"/></g><g transform="translate(18,-20) scale(1.0)" filter="url(#soft)"><ellipse rx="3.2" ry="6.4" transform="rotate(0)" cx="0" cy="-4.5" fill="#fbf6ec"/><ellipse rx="3.2" ry="6.4" transform="rotate(72)" cx="0" cy="-4.5" fill="#fbf6ec"/><ellipse rx="3.2" ry="6.4" transform="rotate(144)" cx="0" cy="-4.5" fill="#fbf6ec"/><ellipse rx="3.2" ry="6.4" transform="rotate(216)" cx="0" cy="-4.5" fill="#fbf6ec"/><ellipse rx="3.2" ry="6.4" transform="rotate(288)" cx="0" cy="-4.5" fill="#fbf6ec"/><circle r="2.1" fill="#e6c98f"/></g><g transform="translate(-14,16) scale(1.0)" filter="url(#soft)"><ellipse rx="3.2" ry="6.4" transform="rotate(0)" cx="0" cy="-4.5" fill="#fbf6ec"/><ellipse rx="3.2" ry="6.4" transform="rotate(72)" cx="0" cy="-4.5" fill="#fbf6ec"/><ellipse rx="3.2" ry="6.4" transform="rotate(144)" cx="0" cy="-4.5" fill="#fbf6ec"/><ellipse rx="3.2" ry="6.4" transform="rotate(216)" cx="0" cy="-4.5" fill="#fbf6ec"/><ellipse rx="3.2" ry="6.4" transform="rotate(288)" cx="0" cy="-4.5" fill="#fbf6ec"/><circle r="2.1" fill="#e6c98f"/></g><g transform="translate(24,-6) scale(1.0)" filter="url(#soft)"><ellipse rx="3.2" ry="6.4" transform="rotate(0)" cx="0" cy="-4.5" fill="#fbf6ec"/><ellipse rx="3.2" ry="6.4" transform="rotate(72)" cx="0" cy="-4.5" fill="#fbf6ec"/><ellipse rx="3.2" ry="6.4" transform="rotate(144)" cx="0" cy="-4.5" fill="#fbf6ec"/><ellipse rx="3.2" ry="6.4" transform="rotate(216)" cx="0" cy="-4.5" fill="#fbf6ec"/><ellipse rx="3.2" ry="6.4" transform="rotate(288)" cx="0" cy="-4.5" fill="#fbf6ec"/><circle r="2.1" fill="#e6c98f"/></g></g><g transform="translate(248,176) scale(-1.0,1.0)"><g transform="translate(-44,-4) rotate(-64)" filter="url(#blur)"><path d="M0,0 C-19.2,-16.8 -9.0,-52.8 0,-60.0 C9.0,-52.8 19.2,-16.8 0,0 Z" fill="url(#leaf)"/><path d="M2,-3 L0,-55.2" stroke="#ffffff30" stroke-width="0.8" fill="none"/></g><g transform="translate(38,-8) rotate(60)" filter="url(#blur)"><path d="M0,0 C-17.9,-15.7 -8.4,-49.3 0,-56.0 C8.4,-49.3 17.9,-15.7 0,0 Z" fill="url(#leaf)"/><path d="M2,-3 L0,-51.5" stroke="#ffffff30" stroke-width="0.8" fill="none"/></g><g transform="translate(-6,-48) rotate(-6)" filter="url(#blur)"><path d="M0,0 C-20.5,-17.9 -9.6,-56.3 0,-64.0 C9.6,-56.3 20.5,-17.9 0,0 Z" fill="url(#leaf)"/><path d="M2,-3 L0,-58.9" stroke="#ffffff30" stroke-width="0.8" fill="none"/></g><g transform="translate(-36,-6) rotate(-56)"><path d="M0,0 C-15.6,-14.6 -7.8,-45.8 0,-52.0 C7.8,-45.8 15.6,-14.6 0,0 Z" fill="url(#leaf)"/><path d="M2,-3 L0,-47.8" stroke="#ffffff30" stroke-width="0.8" fill="none"/></g><g transform="translate(30,-10) rotate(52)"><path d="M0,0 C-14.4,-13.4 -7.2,-42.2 0,-48.0 C7.2,-42.2 14.4,-13.4 0,0 Z" fill="url(#leaf)"/><path d="M2,-3 L0,-44.2" stroke="#ffffff30" stroke-width="0.8" fill="none"/></g><g transform="translate(-12,-40) rotate(-10)"><path d="M0,0 C-16.2,-15.1 -8.1,-47.5 0,-54.0 C8.1,-47.5 16.2,-15.1 0,0 Z" fill="url(#leaf)"/><path d="M2,-3 L0,-49.7" stroke="#ffffff30" stroke-width="0.8" fill="none"/></g><g transform="translate(-48,20) rotate(-98)"><path d="M0,0 C-12.6,-11.8 -6.3,-37.0 0,-42.0 C6.3,-37.0 12.6,-11.8 0,0 Z" fill="url(#leaf)"/><path d="M2,-3 L0,-38.6" stroke="#ffffff30" stroke-width="0.8" fill="none"/></g><g transform="translate(42,22) rotate(106)"><path d="M0,0 C-13.2,-12.3 -6.6,-38.7 0,-44.0 C6.6,-38.7 13.2,-12.3 0,0 Z" fill="url(#leaf)"/><path d="M2,-3 L0,-40.5" stroke="#ffffff30" stroke-width="0.8" fill="none"/></g><g transform="translate(-42,-30) rotate(-32) scale(0.95)" filter="url(#soft)"><path d="M0,2 C-7,-2 -7,-17 0,-22 C7,-17 7,-2 0,2Z" fill="url(#rose)"/><path d="M0,0 C-4,-2 -3,-11 0,-14 C3,-11 4,-2 0,0Z" fill="#b9cad9" opacity=".8"/><path d="M0,2 C-3,6 -6,7 -8,10 M0,2 C3,6 6,7 8,10" stroke="url(#leaf)" stroke-width="3" fill="none" stroke-linecap="round"/></g><g transform="translate(46,-22) rotate(30) scale(0.9)" filter="url(#soft)"><path d="M0,2 C-7,-2 -7,-17 0,-22 C7,-17 7,-2 0,2Z" fill="url(#rose)"/><path d="M0,0 C-4,-2 -3,-11 0,-14 C3,-11 4,-2 0,0Z" fill="#b9cad9" opacity=".8"/><path d="M0,2 C-3,6 -6,7 -8,10 M0,2 C3,6 6,7 8,10" stroke="url(#leaf)" stroke-width="3" fill="none" stroke-linecap="round"/></g><g transform="translate(-2,-52) rotate(4) scale(0.85)" filter="url(#soft)"><path d="M0,2 C-7,-2 -7,-17 0,-22 C7,-17 7,-2 0,2Z" fill="url(#rose)"/><path d="M0,0 C-4,-2 -3,-11 0,-14 C3,-11 4,-2 0,0Z" fill="#b9cad9" opacity=".8"/><path d="M0,2 C-3,6 -6,7 -8,10 M0,2 C3,6 6,7 8,10" stroke="url(#leaf)" stroke-width="3" fill="none" stroke-linecap="round"/></g><g transform="translate(-4,-4) rotate(12)" filter="url(#soft)"><circle r="22.5" fill="#5f7a95" opacity="0.25"/><path d="M0,0 C-13.0,-3.0 -13.0,-17.5 0,-25.0 C13.0,-17.5 13.0,-3.0 0,0 Z" transform="rotate(0.0)" fill="url(#rose)"/><path d="M0,0 C-13.0,-3.0 -13.0,-17.5 0,-25.0 C13.0,-17.5 13.0,-3.0 0,0 Z" transform="rotate(0.0) scale(0.9)" fill="#00000010"/><path d="M0,0 C-13.0,-3.0 -13.0,-17.5 0,-25.0 C13.0,-17.5 13.0,-3.0 0,0 Z" transform="rotate(60.0)" fill="url(#rose)"/><path d="M0,0 C-13.0,-3.0 -13.0,-17.5 0,-25.0 C13.0,-17.5 13.0,-3.0 0,0 Z" transform="rotate(60.0) scale(0.9)" fill="#00000010"/><path d="M0,0 C-13.0,-3.0 -13.0,-17.5 0,-25.0 C13.0,-17.5 13.0,-3.0 0,0 Z" transform="rotate(120.0)" fill="url(#rose)"/><path d="M0,0 C-13.0,-3.0 -13.0,-17.5 0,-25.0 C13.0,-17.5 13.0,-3.0 0,0 Z" transform="rotate(120.0) scale(0.9)" fill="#00000010"/><path d="M0,0 C-13.0,-3.0 -13.0,-17.5 0,-25.0 C13.0,-17.5 13.0,-3.0 0,0 Z" transform="rotate(180.0)" fill="url(#rose)"/><path d="M0,0 C-13.0,-3.0 -13.0,-17.5 0,-25.0 C13.0,-17.5 13.0,-3.0 0,0 Z" transform="rotate(180.0) scale(0.9)" fill="#00000010"/><path d="M0,0 C-13.0,-3.0 -13.0,-17.5 0,-25.0 C13.0,-17.5 13.0,-3.0 0,0 Z" transform="rotate(240.0)" fill="url(#rose)"/><path d="M0,0 C-13.0,-3.0 -13.0,-17.5 0,-25.0 C13.0,-17.5 13.0,-3.0 0,0 Z" transform="rotate(240.0) scale(0.9)" fill="#00000010"/><path d="M0,0 C-13.0,-3.0 -13.0,-17.5 0,-25.0 C13.0,-17.5 13.0,-3.0 0,0 Z" transform="rotate(300.0)" fill="url(#rose)"/><path d="M0,0 C-13.0,-3.0 -13.0,-17.5 0,-25.0 C13.0,-17.5 13.0,-3.0 0,0 Z" transform="rotate(300.0) scale(0.9)" fill="#00000010"/><path d="M0,0 C-10.4,-2.4 -10.4,-14.0 0,-20.0 C10.4,-14.0 10.4,-2.4 0,0 Z" transform="rotate(18.0)" fill="url(#rose)"/><path d="M0,0 C-10.4,-2.4 -10.4,-14.0 0,-20.0 C10.4,-14.0 10.4,-2.4 0,0 Z" transform="rotate(18.0) scale(0.9)" fill="#00000010"/><path d="M0,0 C-10.4,-2.4 -10.4,-14.0 0,-20.0 C10.4,-14.0 10.4,-2.4 0,0 Z" transform="rotate(78.0)" fill="url(#rose)"/><path d="M0,0 C-10.4,-2.4 -10.4,-14.0 0,-20.0 C10.4,-14.0 10.4,-2.4 0,0 Z" transform="rotate(78.0) scale(0.9)" fill="#00000010"/><path d="M0,0 C-10.4,-2.4 -10.4,-14.0 0,-20.0 C10.4,-14.0 10.4,-2.4 0,0 Z" transform="rotate(138.0)" fill="url(#rose)"/><path d="M0,0 C-10.4,-2.4 -10.4,-14.0 0,-20.0 C10.4,-14.0 10.4,-2.4 0,0 Z" transform="rotate(138.0) scale(0.9)" fill="#00000010"/><path d="M0,0 C-10.4,-2.4 -10.4,-14.0 0,-20.0 C10.4,-14.0 10.4,-2.4 0,0 Z" transform="rotate(198.0)" fill="url(#rose)"/><path d="M0,0 C-10.4,-2.4 -10.4,-14.0 0,-20.0 C10.4,-14.0 10.4,-2.4 0,0 Z" transform="rotate(198.0) scale(0.9)" fill="#00000010"/><path d="M0,0 C-10.4,-2.4 -10.4,-14.0 0,-20.0 C10.4,-14.0 10.4,-2.4 0,0 Z" transform="rotate(258.0)" fill="url(#rose)"/><path d="M0,0 C-10.4,-2.4 -10.4,-14.0 0,-20.0 C10.4,-14.0 10.4,-2.4 0,0 Z" transform="rotate(258.0) scale(0.9)" fill="#00000010"/><path d="M0,0 C-10.4,-2.4 -10.4,-14.0 0,-20.0 C10.4,-14.0 10.4,-2.4 0,0 Z" transform="rotate(318.0)" fill="url(#rose)"/><path d="M0,0 C-10.4,-2.4 -10.4,-14.0 0,-20.0 C10.4,-14.0 10.4,-2.4 0,0 Z" transform="rotate(318.0) scale(0.9)" fill="#00000010"/><path d="M0,0 C-8.1,-1.9 -8.1,-10.8 0,-15.5 C8.1,-10.8 8.1,-1.9 0,0 Z" transform="rotate(34.0)" fill="url(#rose)"/><path d="M0,0 C-8.1,-1.9 -8.1,-10.8 0,-15.5 C8.1,-10.8 8.1,-1.9 0,0 Z" transform="rotate(34.0) scale(0.9)" fill="#00000010"/><path d="M0,0 C-8.1,-1.9 -8.1,-10.8 0,-15.5 C8.1,-10.8 8.1,-1.9 0,0 Z" transform="rotate(94.0)" fill="url(#rose)"/><path d="M0,0 C-8.1,-1.9 -8.1,-10.8 0,-15.5 C8.1,-10.8 8.1,-1.9 0,0 Z" transform="rotate(94.0) scale(0.9)" fill="#00000010"/><path d="M0,0 C-8.1,-1.9 -8.1,-10.8 0,-15.5 C8.1,-10.8 8.1,-1.9 0,0 Z" transform="rotate(154.0)" fill="url(#rose)"/><path d="M0,0 C-8.1,-1.9 -8.1,-10.8 0,-15.5 C8.1,-10.8 8.1,-1.9 0,0 Z" transform="rotate(154.0) scale(0.9)" fill="#00000010"/><path d="M0,0 C-8.1,-1.9 -8.1,-10.8 0,-15.5 C8.1,-10.8 8.1,-1.9 0,0 Z" transform="rotate(214.0)" fill="url(#rose)"/><path d="M0,0 C-8.1,-1.9 -8.1,-10.8 0,-15.5 C8.1,-10.8 8.1,-1.9 0,0 Z" transform="rotate(214.0) scale(0.9)" fill="#00000010"/><path d="M0,0 C-8.1,-1.9 -8.1,-10.8 0,-15.5 C8.1,-10.8 8.1,-1.9 0,0 Z" transform="rotate(274.0)" fill="url(#rose)"/><path d="M0,0 C-8.1,-1.9 -8.1,-10.8 0,-15.5 C8.1,-10.8 8.1,-1.9 0,0 Z" transform="rotate(274.0) scale(0.9)" fill="#00000010"/><path d="M0,0 C-8.1,-1.9 -8.1,-10.8 0,-15.5 C8.1,-10.8 8.1,-1.9 0,0 Z" transform="rotate(334.0)" fill="url(#rose)"/><path d="M0,0 C-8.1,-1.9 -8.1,-10.8 0,-15.5 C8.1,-10.8 8.1,-1.9 0,0 Z" transform="rotate(334.0) scale(0.9)" fill="#00000010"/><path d="M0,0 C-5.9,-1.3 -5.9,-7.9 0,-11.2 C5.9,-7.9 5.9,-1.3 0,0 Z" transform="rotate(52.0)" fill="url(#rose)"/><path d="M0,0 C-5.9,-1.3 -5.9,-7.9 0,-11.2 C5.9,-7.9 5.9,-1.3 0,0 Z" transform="rotate(52.0) scale(0.9)" fill="#00000010"/><path d="M0,0 C-5.9,-1.3 -5.9,-7.9 0,-11.2 C5.9,-7.9 5.9,-1.3 0,0 Z" transform="rotate(112.0)" fill="url(#rose)"/><path d="M0,0 C-5.9,-1.3 -5.9,-7.9 0,-11.2 C5.9,-7.9 5.9,-1.3 0,0 Z" transform="rotate(112.0) scale(0.9)" fill="#00000010"/><path d="M0,0 C-5.9,-1.3 -5.9,-7.9 0,-11.2 C5.9,-7.9 5.9,-1.3 0,0 Z" transform="rotate(172.0)" fill="url(#rose)"/><path d="M0,0 C-5.9,-1.3 -5.9,-7.9 0,-11.2 C5.9,-7.9 5.9,-1.3 0,0 Z" transform="rotate(172.0) scale(0.9)" fill="#00000010"/><path d="M0,0 C-5.9,-1.3 -5.9,-7.9 0,-11.2 C5.9,-7.9 5.9,-1.3 0,0 Z" transform="rotate(232.0)" fill="url(#rose)"/><path d="M0,0 C-5.9,-1.3 -5.9,-7.9 0,-11.2 C5.9,-7.9 5.9,-1.3 0,0 Z" transform="rotate(232.0) scale(0.9)" fill="#00000010"/><path d="M0,0 C-5.9,-1.3 -5.9,-7.9 0,-11.2 C5.9,-7.9 5.9,-1.3 0,0 Z" transform="rotate(292.0)" fill="url(#rose)"/><path d="M0,0 C-5.9,-1.3 -5.9,-7.9 0,-11.2 C5.9,-7.9 5.9,-1.3 0,0 Z" transform="rotate(292.0) scale(0.9)" fill="#00000010"/><path d="M0,0 C-5.9,-1.3 -5.9,-7.9 0,-11.2 C5.9,-7.9 5.9,-1.3 0,0 Z" transform="rotate(352.0)" fill="url(#rose)"/><path d="M0,0 C-5.9,-1.3 -5.9,-7.9 0,-11.2 C5.9,-7.9 5.9,-1.3 0,0 Z" transform="rotate(352.0) scale(0.9)" fill="#00000010"/><path d="M0,0 C-3.9,-0.9 -3.9,-5.2 0,-7.5 C3.9,-5.2 3.9,-0.9 0,0 Z" transform="rotate(70.0)" fill="url(#rose)"/><path d="M0,0 C-3.9,-0.9 -3.9,-5.2 0,-7.5 C3.9,-5.2 3.9,-0.9 0,0 Z" transform="rotate(70.0) scale(0.9)" fill="#00000010"/><path d="M0,0 C-3.9,-0.9 -3.9,-5.2 0,-7.5 C3.9,-5.2 3.9,-0.9 0,0 Z" transform="rotate(130.0)" fill="url(#rose)"/><path d="M0,0 C-3.9,-0.9 -3.9,-5.2 0,-7.5 C3.9,-5.2 3.9,-0.9 0,0 Z" transform="rotate(130.0) scale(0.9)" fill="#00000010"/><path d="M0,0 C-3.9,-0.9 -3.9,-5.2 0,-7.5 C3.9,-5.2 3.9,-0.9 0,0 Z" transform="rotate(190.0)" fill="url(#rose)"/><path d="M0,0 C-3.9,-0.9 -3.9,-5.2 0,-7.5 C3.9,-5.2 3.9,-0.9 0,0 Z" transform="rotate(190.0) scale(0.9)" fill="#00000010"/><path d="M0,0 C-3.9,-0.9 -3.9,-5.2 0,-7.5 C3.9,-5.2 3.9,-0.9 0,0 Z" transform="rotate(250.0)" fill="url(#rose)"/><path d="M0,0 C-3.9,-0.9 -3.9,-5.2 0,-7.5 C3.9,-5.2 3.9,-0.9 0,0 Z" transform="rotate(250.0) scale(0.9)" fill="#00000010"/><path d="M0,0 C-3.9,-0.9 -3.9,-5.2 0,-7.5 C3.9,-5.2 3.9,-0.9 0,0 Z" transform="rotate(310.0)" fill="url(#rose)"/><path d="M0,0 C-3.9,-0.9 -3.9,-5.2 0,-7.5 C3.9,-5.2 3.9,-0.9 0,0 Z" transform="rotate(310.0) scale(0.9)" fill="#00000010"/><path d="M0,0 C-3.9,-0.9 -3.9,-5.2 0,-7.5 C3.9,-5.2 3.9,-0.9 0,0 Z" transform="rotate(370.0)" fill="url(#rose)"/><path d="M0,0 C-3.9,-0.9 -3.9,-5.2 0,-7.5 C3.9,-5.2 3.9,-0.9 0,0 Z" transform="rotate(370.0) scale(0.9)" fill="#00000010"/><circle r="5.0" fill="url(#roseC)"/><path d="M0,-3.5 A 3.0 3.0 0 1 1 -2.8,1.8" fill="none" stroke="#47607a" stroke-width="1.2" opacity="0.5"/></g><g transform="translate(-34,10) rotate(-24)" filter="url(#soft)"><circle r="15.3" fill="#5f7a95" opacity="0.25"/><path d="M0,0 C-8.8,-2.0 -8.8,-11.9 0,-17.0 C8.8,-11.9 8.8,-2.0 0,0 Z" transform="rotate(0.0)" fill="url(#rose)"/><path d="M0,0 C-8.8,-2.0 -8.8,-11.9 0,-17.0 C8.8,-11.9 8.8,-2.0 0,0 Z" transform="rotate(0.0) scale(0.9)" fill="#00000010"/><path d="M0,0 C-8.8,-2.0 -8.8,-11.9 0,-17.0 C8.8,-11.9 8.8,-2.0 0,0 Z" transform="rotate(60.0)" fill="url(#rose)"/><path d="M0,0 C-8.8,-2.0 -8.8,-11.9 0,-17.0 C8.8,-11.9 8.8,-2.0 0,0 Z" transform="rotate(60.0) scale(0.9)" fill="#00000010"/><path d="M0,0 C-8.8,-2.0 -8.8,-11.9 0,-17.0 C8.8,-11.9 8.8,-2.0 0,0 Z" transform="rotate(120.0)" fill="url(#rose)"/><path d="M0,0 C-8.8,-2.0 -8.8,-11.9 0,-17.0 C8.8,-11.9 8.8,-2.0 0,0 Z" transform="rotate(120.0) scale(0.9)" fill="#00000010"/><path d="M0,0 C-8.8,-2.0 -8.8,-11.9 0,-17.0 C8.8,-11.9 8.8,-2.0 0,0 Z" transform="rotate(180.0)" fill="url(#rose)"/><path d="M0,0 C-8.8,-2.0 -8.8,-11.9 0,-17.0 C8.8,-11.9 8.8,-2.0 0,0 Z" transform="rotate(180.0) scale(0.9)" fill="#00000010"/><path d="M0,0 C-8.8,-2.0 -8.8,-11.9 0,-17.0 C8.8,-11.9 8.8,-2.0 0,0 Z" transform="rotate(240.0)" fill="url(#rose)"/><path d="M0,0 C-8.8,-2.0 -8.8,-11.9 0,-17.0 C8.8,-11.9 8.8,-2.0 0,0 Z" transform="rotate(240.0) scale(0.9)" fill="#00000010"/><path d="M0,0 C-8.8,-2.0 -8.8,-11.9 0,-17.0 C8.8,-11.9 8.8,-2.0 0,0 Z" transform="rotate(300.0)" fill="url(#rose)"/><path d="M0,0 C-8.8,-2.0 -8.8,-11.9 0,-17.0 C8.8,-11.9 8.8,-2.0 0,0 Z" transform="rotate(300.0) scale(0.9)" fill="#00000010"/><path d="M0,0 C-7.1,-1.6 -7.1,-9.5 0,-13.6 C7.1,-9.5 7.1,-1.6 0,0 Z" transform="rotate(18.0)" fill="url(#rose)"/><path d="M0,0 C-7.1,-1.6 -7.1,-9.5 0,-13.6 C7.1,-9.5 7.1,-1.6 0,0 Z" transform="rotate(18.0) scale(0.9)" fill="#00000010"/><path d="M0,0 C-7.1,-1.6 -7.1,-9.5 0,-13.6 C7.1,-9.5 7.1,-1.6 0,0 Z" transform="rotate(78.0)" fill="url(#rose)"/><path d="M0,0 C-7.1,-1.6 -7.1,-9.5 0,-13.6 C7.1,-9.5 7.1,-1.6 0,0 Z" transform="rotate(78.0) scale(0.9)" fill="#00000010"/><path d="M0,0 C-7.1,-1.6 -7.1,-9.5 0,-13.6 C7.1,-9.5 7.1,-1.6 0,0 Z" transform="rotate(138.0)" fill="url(#rose)"/><path d="M0,0 C-7.1,-1.6 -7.1,-9.5 0,-13.6 C7.1,-9.5 7.1,-1.6 0,0 Z" transform="rotate(138.0) scale(0.9)" fill="#00000010"/><path d="M0,0 C-7.1,-1.6 -7.1,-9.5 0,-13.6 C7.1,-9.5 7.1,-1.6 0,0 Z" transform="rotate(198.0)" fill="url(#rose)"/><path d="M0,0 C-7.1,-1.6 -7.1,-9.5 0,-13.6 C7.1,-9.5 7.1,-1.6 0,0 Z" transform="rotate(198.0) scale(0.9)" fill="#00000010"/><path d="M0,0 C-7.1,-1.6 -7.1,-9.5 0,-13.6 C7.1,-9.5 7.1,-1.6 0,0 Z" transform="rotate(258.0)" fill="url(#rose)"/><path d="M0,0 C-7.1,-1.6 -7.1,-9.5 0,-13.6 C7.1,-9.5 7.1,-1.6 0,0 Z" transform="rotate(258.0) scale(0.9)" fill="#00000010"/><path d="M0,0 C-7.1,-1.6 -7.1,-9.5 0,-13.6 C7.1,-9.5 7.1,-1.6 0,0 Z" transform="rotate(318.0)" fill="url(#rose)"/><path d="M0,0 C-7.1,-1.6 -7.1,-9.5 0,-13.6 C7.1,-9.5 7.1,-1.6 0,0 Z" transform="rotate(318.0) scale(0.9)" fill="#00000010"/><path d="M0,0 C-5.5,-1.3 -5.5,-7.4 0,-10.5 C5.5,-7.4 5.5,-1.3 0,0 Z" transform="rotate(34.0)" fill="url(#rose)"/><path d="M0,0 C-5.5,-1.3 -5.5,-7.4 0,-10.5 C5.5,-7.4 5.5,-1.3 0,0 Z" transform="rotate(34.0) scale(0.9)" fill="#00000010"/><path d="M0,0 C-5.5,-1.3 -5.5,-7.4 0,-10.5 C5.5,-7.4 5.5,-1.3 0,0 Z" transform="rotate(94.0)" fill="url(#rose)"/><path d="M0,0 C-5.5,-1.3 -5.5,-7.4 0,-10.5 C5.5,-7.4 5.5,-1.3 0,0 Z" transform="rotate(94.0) scale(0.9)" fill="#00000010"/><path d="M0,0 C-5.5,-1.3 -5.5,-7.4 0,-10.5 C5.5,-7.4 5.5,-1.3 0,0 Z" transform="rotate(154.0)" fill="url(#rose)"/><path d="M0,0 C-5.5,-1.3 -5.5,-7.4 0,-10.5 C5.5,-7.4 5.5,-1.3 0,0 Z" transform="rotate(154.0) scale(0.9)" fill="#00000010"/><path d="M0,0 C-5.5,-1.3 -5.5,-7.4 0,-10.5 C5.5,-7.4 5.5,-1.3 0,0 Z" transform="rotate(214.0)" fill="url(#rose)"/><path d="M0,0 C-5.5,-1.3 -5.5,-7.4 0,-10.5 C5.5,-7.4 5.5,-1.3 0,0 Z" transform="rotate(214.0) scale(0.9)" fill="#00000010"/><path d="M0,0 C-5.5,-1.3 -5.5,-7.4 0,-10.5 C5.5,-7.4 5.5,-1.3 0,0 Z" transform="rotate(274.0)" fill="url(#rose)"/><path d="M0,0 C-5.5,-1.3 -5.5,-7.4 0,-10.5 C5.5,-7.4 5.5,-1.3 0,0 Z" transform="rotate(274.0) scale(0.9)" fill="#00000010"/><path d="M0,0 C-5.5,-1.3 -5.5,-7.4 0,-10.5 C5.5,-7.4 5.5,-1.3 0,0 Z" transform="rotate(334.0)" fill="url(#rose)"/><path d="M0,0 C-5.5,-1.3 -5.5,-7.4 0,-10.5 C5.5,-7.4 5.5,-1.3 0,0 Z" transform="rotate(334.0) scale(0.9)" fill="#00000010"/><path d="M0,0 C-4.0,-0.9 -4.0,-5.4 0,-7.7 C4.0,-5.4 4.0,-0.9 0,0 Z" transform="rotate(52.0)" fill="url(#rose)"/><path d="M0,0 C-4.0,-0.9 -4.0,-5.4 0,-7.7 C4.0,-5.4 4.0,-0.9 0,0 Z" transform="rotate(52.0) scale(0.9)" fill="#00000010"/><path d="M0,0 C-4.0,-0.9 -4.0,-5.4 0,-7.7 C4.0,-5.4 4.0,-0.9 0,0 Z" transform="rotate(112.0)" fill="url(#rose)"/><path d="M0,0 C-4.0,-0.9 -4.0,-5.4 0,-7.7 C4.0,-5.4 4.0,-0.9 0,0 Z" transform="rotate(112.0) scale(0.9)" fill="#00000010"/><path d="M0,0 C-4.0,-0.9 -4.0,-5.4 0,-7.7 C4.0,-5.4 4.0,-0.9 0,0 Z" transform="rotate(172.0)" fill="url(#rose)"/><path d="M0,0 C-4.0,-0.9 -4.0,-5.4 0,-7.7 C4.0,-5.4 4.0,-0.9 0,0 Z" transform="rotate(172.0) scale(0.9)" fill="#00000010"/><path d="M0,0 C-4.0,-0.9 -4.0,-5.4 0,-7.7 C4.0,-5.4 4.0,-0.9 0,0 Z" transform="rotate(232.0)" fill="url(#rose)"/><path d="M0,0 C-4.0,-0.9 -4.0,-5.4 0,-7.7 C4.0,-5.4 4.0,-0.9 0,0 Z" transform="rotate(232.0) scale(0.9)" fill="#00000010"/><path d="M0,0 C-4.0,-0.9 -4.0,-5.4 0,-7.7 C4.0,-5.4 4.0,-0.9 0,0 Z" transform="rotate(292.0)" fill="url(#rose)"/><path d="M0,0 C-4.0,-0.9 -4.0,-5.4 0,-7.7 C4.0,-5.4 4.0,-0.9 0,0 Z" transform="rotate(292.0) scale(0.9)" fill="#00000010"/><path d="M0,0 C-4.0,-0.9 -4.0,-5.4 0,-7.7 C4.0,-5.4 4.0,-0.9 0,0 Z" transform="rotate(352.0)" fill="url(#rose)"/><path d="M0,0 C-4.0,-0.9 -4.0,-5.4 0,-7.7 C4.0,-5.4 4.0,-0.9 0,0 Z" transform="rotate(352.0) scale(0.9)" fill="#00000010"/><path d="M0,0 C-2.7,-0.6 -2.7,-3.6 0,-5.1 C2.7,-3.6 2.7,-0.6 0,0 Z" transform="rotate(70.0)" fill="url(#rose)"/><path d="M0,0 C-2.7,-0.6 -2.7,-3.6 0,-5.1 C2.7,-3.6 2.7,-0.6 0,0 Z" transform="rotate(70.0) scale(0.9)" fill="#00000010"/><path d="M0,0 C-2.7,-0.6 -2.7,-3.6 0,-5.1 C2.7,-3.6 2.7,-0.6 0,0 Z" transform="rotate(130.0)" fill="url(#rose)"/><path d="M0,0 C-2.7,-0.6 -2.7,-3.6 0,-5.1 C2.7,-3.6 2.7,-0.6 0,0 Z" transform="rotate(130.0) scale(0.9)" fill="#00000010"/><path d="M0,0 C-2.7,-0.6 -2.7,-3.6 0,-5.1 C2.7,-3.6 2.7,-0.6 0,0 Z" transform="rotate(190.0)" fill="url(#rose)"/><path d="M0,0 C-2.7,-0.6 -2.7,-3.6 0,-5.1 C2.7,-3.6 2.7,-0.6 0,0 Z" transform="rotate(190.0) scale(0.9)" fill="#00000010"/><path d="M0,0 C-2.7,-0.6 -2.7,-3.6 0,-5.1 C2.7,-3.6 2.7,-0.6 0,0 Z" transform="rotate(250.0)" fill="url(#rose)"/><path d="M0,0 C-2.7,-0.6 -2.7,-3.6 0,-5.1 C2.7,-3.6 2.7,-0.6 0,0 Z" transform="rotate(250.0) scale(0.9)" fill="#00000010"/><path d="M0,0 C-2.7,-0.6 -2.7,-3.6 0,-5.1 C2.7,-3.6 2.7,-0.6 0,0 Z" transform="rotate(310.0)" fill="url(#rose)"/><path d="M0,0 C-2.7,-0.6 -2.7,-3.6 0,-5.1 C2.7,-3.6 2.7,-0.6 0,0 Z" transform="rotate(310.0) scale(0.9)" fill="#00000010"/><path d="M0,0 C-2.7,-0.6 -2.7,-3.6 0,-5.1 C2.7,-3.6 2.7,-0.6 0,0 Z" transform="rotate(370.0)" fill="url(#rose)"/><path d="M0,0 C-2.7,-0.6 -2.7,-3.6 0,-5.1 C2.7,-3.6 2.7,-0.6 0,0 Z" transform="rotate(370.0) scale(0.9)" fill="#00000010"/><circle r="3.4" fill="url(#roseC)"/><path d="M0,-2.4 A 2.0 2.0 0 1 1 -1.9,1.2" fill="none" stroke="#47607a" stroke-width="1.0" opacity="0.5"/></g><g transform="translate(31,4) rotate(28)" filter="url(#soft)"><circle r="17.1" fill="#5f7a95" opacity="0.25"/><path d="M0,0 C-9.9,-2.3 -9.9,-13.3 0,-19.0 C9.9,-13.3 9.9,-2.3 0,0 Z" transform="rotate(0.0)" fill="url(#rose)"/><path d="M0,0 C-9.9,-2.3 -9.9,-13.3 0,-19.0 C9.9,-13.3 9.9,-2.3 0,0 Z" transform="rotate(0.0) scale(0.9)" fill="#00000010"/><path d="M0,0 C-9.9,-2.3 -9.9,-13.3 0,-19.0 C9.9,-13.3 9.9,-2.3 0,0 Z" transform="rotate(60.0)" fill="url(#rose)"/><path d="M0,0 C-9.9,-2.3 -9.9,-13.3 0,-19.0 C9.9,-13.3 9.9,-2.3 0,0 Z" transform="rotate(60.0) scale(0.9)" fill="#00000010"/><path d="M0,0 C-9.9,-2.3 -9.9,-13.3 0,-19.0 C9.9,-13.3 9.9,-2.3 0,0 Z" transform="rotate(120.0)" fill="url(#rose)"/><path d="M0,0 C-9.9,-2.3 -9.9,-13.3 0,-19.0 C9.9,-13.3 9.9,-2.3 0,0 Z" transform="rotate(120.0) scale(0.9)" fill="#00000010"/><path d="M0,0 C-9.9,-2.3 -9.9,-13.3 0,-19.0 C9.9,-13.3 9.9,-2.3 0,0 Z" transform="rotate(180.0)" fill="url(#rose)"/><path d="M0,0 C-9.9,-2.3 -9.9,-13.3 0,-19.0 C9.9,-13.3 9.9,-2.3 0,0 Z" transform="rotate(180.0) scale(0.9)" fill="#00000010"/><path d="M0,0 C-9.9,-2.3 -9.9,-13.3 0,-19.0 C9.9,-13.3 9.9,-2.3 0,0 Z" transform="rotate(240.0)" fill="url(#rose)"/><path d="M0,0 C-9.9,-2.3 -9.9,-13.3 0,-19.0 C9.9,-13.3 9.9,-2.3 0,0 Z" transform="rotate(240.0) scale(0.9)" fill="#00000010"/><path d="M0,0 C-9.9,-2.3 -9.9,-13.3 0,-19.0 C9.9,-13.3 9.9,-2.3 0,0 Z" transform="rotate(300.0)" fill="url(#rose)"/><path d="M0,0 C-9.9,-2.3 -9.9,-13.3 0,-19.0 C9.9,-13.3 9.9,-2.3 0,0 Z" transform="rotate(300.0) scale(0.9)" fill="#00000010"/><path d="M0,0 C-7.9,-1.8 -7.9,-10.6 0,-15.2 C7.9,-10.6 7.9,-1.8 0,0 Z" transform="rotate(18.0)" fill="url(#rose)"/><path d="M0,0 C-7.9,-1.8 -7.9,-10.6 0,-15.2 C7.9,-10.6 7.9,-1.8 0,0 Z" transform="rotate(18.0) scale(0.9)" fill="#00000010"/><path d="M0,0 C-7.9,-1.8 -7.9,-10.6 0,-15.2 C7.9,-10.6 7.9,-1.8 0,0 Z" transform="rotate(78.0)" fill="url(#rose)"/><path d="M0,0 C-7.9,-1.8 -7.9,-10.6 0,-15.2 C7.9,-10.6 7.9,-1.8 0,0 Z" transform="rotate(78.0) scale(0.9)" fill="#00000010"/><path d="M0,0 C-7.9,-1.8 -7.9,-10.6 0,-15.2 C7.9,-10.6 7.9,-1.8 0,0 Z" transform="rotate(138.0)" fill="url(#rose)"/><path d="M0,0 C-7.9,-1.8 -7.9,-10.6 0,-15.2 C7.9,-10.6 7.9,-1.8 0,0 Z" transform="rotate(138.0) scale(0.9)" fill="#00000010"/><path d="M0,0 C-7.9,-1.8 -7.9,-10.6 0,-15.2 C7.9,-10.6 7.9,-1.8 0,0 Z" transform="rotate(198.0)" fill="url(#rose)"/><path d="M0,0 C-7.9,-1.8 -7.9,-10.6 0,-15.2 C7.9,-10.6 7.9,-1.8 0,0 Z" transform="rotate(198.0) scale(0.9)" fill="#00000010"/><path d="M0,0 C-7.9,-1.8 -7.9,-10.6 0,-15.2 C7.9,-10.6 7.9,-1.8 0,0 Z" transform="rotate(258.0)" fill="url(#rose)"/><path d="M0,0 C-7.9,-1.8 -7.9,-10.6 0,-15.2 C7.9,-10.6 7.9,-1.8 0,0 Z" transform="rotate(258.0) scale(0.9)" fill="#00000010"/><path d="M0,0 C-7.9,-1.8 -7.9,-10.6 0,-15.2 C7.9,-10.6 7.9,-1.8 0,0 Z" transform="rotate(318.0)" fill="url(#rose)"/><path d="M0,0 C-7.9,-1.8 -7.9,-10.6 0,-15.2 C7.9,-10.6 7.9,-1.8 0,0 Z" transform="rotate(318.0) scale(0.9)" fill="#00000010"/><path d="M0,0 C-6.1,-1.4 -6.1,-8.2 0,-11.8 C6.1,-8.2 6.1,-1.4 0,0 Z" transform="rotate(34.0)" fill="url(#rose)"/><path d="M0,0 C-6.1,-1.4 -6.1,-8.2 0,-11.8 C6.1,-8.2 6.1,-1.4 0,0 Z" transform="rotate(34.0) scale(0.9)" fill="#00000010"/><path d="M0,0 C-6.1,-1.4 -6.1,-8.2 0,-11.8 C6.1,-8.2 6.1,-1.4 0,0 Z" transform="rotate(94.0)" fill="url(#rose)"/><path d="M0,0 C-6.1,-1.4 -6.1,-8.2 0,-11.8 C6.1,-8.2 6.1,-1.4 0,0 Z" transform="rotate(94.0) scale(0.9)" fill="#00000010"/><path d="M0,0 C-6.1,-1.4 -6.1,-8.2 0,-11.8 C6.1,-8.2 6.1,-1.4 0,0 Z" transform="rotate(154.0)" fill="url(#rose)"/><path d="M0,0 C-6.1,-1.4 -6.1,-8.2 0,-11.8 C6.1,-8.2 6.1,-1.4 0,0 Z" transform="rotate(154.0) scale(0.9)" fill="#00000010"/><path d="M0,0 C-6.1,-1.4 -6.1,-8.2 0,-11.8 C6.1,-8.2 6.1,-1.4 0,0 Z" transform="rotate(214.0)" fill="url(#rose)"/><path d="M0,0 C-6.1,-1.4 -6.1,-8.2 0,-11.8 C6.1,-8.2 6.1,-1.4 0,0 Z" transform="rotate(214.0) scale(0.9)" fill="#00000010"/><path d="M0,0 C-6.1,-1.4 -6.1,-8.2 0,-11.8 C6.1,-8.2 6.1,-1.4 0,0 Z" transform="rotate(274.0)" fill="url(#rose)"/><path d="M0,0 C-6.1,-1.4 -6.1,-8.2 0,-11.8 C6.1,-8.2 6.1,-1.4 0,0 Z" transform="rotate(274.0) scale(0.9)" fill="#00000010"/><path d="M0,0 C-6.1,-1.4 -6.1,-8.2 0,-11.8 C6.1,-8.2 6.1,-1.4 0,0 Z" transform="rotate(334.0)" fill="url(#rose)"/><path d="M0,0 C-6.1,-1.4 -6.1,-8.2 0,-11.8 C6.1,-8.2 6.1,-1.4 0,0 Z" transform="rotate(334.0) scale(0.9)" fill="#00000010"/><path d="M0,0 C-4.4,-1.0 -4.4,-6.0 0,-8.6 C4.4,-6.0 4.4,-1.0 0,0 Z" transform="rotate(52.0)" fill="url(#rose)"/><path d="M0,0 C-4.4,-1.0 -4.4,-6.0 0,-8.6 C4.4,-6.0 4.4,-1.0 0,0 Z" transform="rotate(52.0) scale(0.9)" fill="#00000010"/><path d="M0,0 C-4.4,-1.0 -4.4,-6.0 0,-8.6 C4.4,-6.0 4.4,-1.0 0,0 Z" transform="rotate(112.0)" fill="url(#rose)"/><path d="M0,0 C-4.4,-1.0 -4.4,-6.0 0,-8.6 C4.4,-6.0 4.4,-1.0 0,0 Z" transform="rotate(112.0) scale(0.9)" fill="#00000010"/><path d="M0,0 C-4.4,-1.0 -4.4,-6.0 0,-8.6 C4.4,-6.0 4.4,-1.0 0,0 Z" transform="rotate(172.0)" fill="url(#rose)"/><path d="M0,0 C-4.4,-1.0 -4.4,-6.0 0,-8.6 C4.4,-6.0 4.4,-1.0 0,0 Z" transform="rotate(172.0) scale(0.9)" fill="#00000010"/><path d="M0,0 C-4.4,-1.0 -4.4,-6.0 0,-8.6 C4.4,-6.0 4.4,-1.0 0,0 Z" transform="rotate(232.0)" fill="url(#rose)"/><path d="M0,0 C-4.4,-1.0 -4.4,-6.0 0,-8.6 C4.4,-6.0 4.4,-1.0 0,0 Z" transform="rotate(232.0) scale(0.9)" fill="#00000010"/><path d="M0,0 C-4.4,-1.0 -4.4,-6.0 0,-8.6 C4.4,-6.0 4.4,-1.0 0,0 Z" transform="rotate(292.0)" fill="url(#rose)"/><path d="M0,0 C-4.4,-1.0 -4.4,-6.0 0,-8.6 C4.4,-6.0 4.4,-1.0 0,0 Z" transform="rotate(292.0) scale(0.9)" fill="#00000010"/><path d="M0,0 C-4.4,-1.0 -4.4,-6.0 0,-8.6 C4.4,-6.0 4.4,-1.0 0,0 Z" transform="rotate(352.0)" fill="url(#rose)"/><path d="M0,0 C-4.4,-1.0 -4.4,-6.0 0,-8.6 C4.4,-6.0 4.4,-1.0 0,0 Z" transform="rotate(352.0) scale(0.9)" fill="#00000010"/><path d="M0,0 C-3.0,-0.7 -3.0,-4.0 0,-5.7 C3.0,-4.0 3.0,-0.7 0,0 Z" transform="rotate(70.0)" fill="url(#rose)"/><path d="M0,0 C-3.0,-0.7 -3.0,-4.0 0,-5.7 C3.0,-4.0 3.0,-0.7 0,0 Z" transform="rotate(70.0) scale(0.9)" fill="#00000010"/><path d="M0,0 C-3.0,-0.7 -3.0,-4.0 0,-5.7 C3.0,-4.0 3.0,-0.7 0,0 Z" transform="rotate(130.0)" fill="url(#rose)"/><path d="M0,0 C-3.0,-0.7 -3.0,-4.0 0,-5.7 C3.0,-4.0 3.0,-0.7 0,0 Z" transform="rotate(130.0) scale(0.9)" fill="#00000010"/><path d="M0,0 C-3.0,-0.7 -3.0,-4.0 0,-5.7 C3.0,-4.0 3.0,-0.7 0,0 Z" transform="rotate(190.0)" fill="url(#rose)"/><path d="M0,0 C-3.0,-0.7 -3.0,-4.0 0,-5.7 C3.0,-4.0 3.0,-0.7 0,0 Z" transform="rotate(190.0) scale(0.9)" fill="#00000010"/><path d="M0,0 C-3.0,-0.7 -3.0,-4.0 0,-5.7 C3.0,-4.0 3.0,-0.7 0,0 Z" transform="rotate(250.0)" fill="url(#rose)"/><path d="M0,0 C-3.0,-0.7 -3.0,-4.0 0,-5.7 C3.0,-4.0 3.0,-0.7 0,0 Z" transform="rotate(250.0) scale(0.9)" fill="#00000010"/><path d="M0,0 C-3.0,-0.7 -3.0,-4.0 0,-5.7 C3.0,-4.0 3.0,-0.7 0,0 Z" transform="rotate(310.0)" fill="url(#rose)"/><path d="M0,0 C-3.0,-0.7 -3.0,-4.0 0,-5.7 C3.0,-4.0 3.0,-0.7 0,0 Z" transform="rotate(310.0) scale(0.9)" fill="#00000010"/><path d="M0,0 C-3.0,-0.7 -3.0,-4.0 0,-5.7 C3.0,-4.0 3.0,-0.7 0,0 Z" transform="rotate(370.0)" fill="url(#rose)"/><path d="M0,0 C-3.0,-0.7 -3.0,-4.0 0,-5.7 C3.0,-4.0 3.0,-0.7 0,0 Z" transform="rotate(370.0) scale(0.9)" fill="#00000010"/><circle r="3.8" fill="url(#roseC)"/><path d="M0,-2.7 A 2.3 2.3 0 1 1 -2.1,1.3" fill="none" stroke="#47607a" stroke-width="1.0" opacity="0.5"/></g><g transform="translate(3,-32) rotate(4)" filter="url(#soft)"><circle r="12.6" fill="#5f7a95" opacity="0.25"/><path d="M0,0 C-7.3,-1.7 -7.3,-9.8 0,-14.0 C7.3,-9.8 7.3,-1.7 0,0 Z" transform="rotate(0.0)" fill="url(#rose)"/><path d="M0,0 C-7.3,-1.7 -7.3,-9.8 0,-14.0 C7.3,-9.8 7.3,-1.7 0,0 Z" transform="rotate(0.0) scale(0.9)" fill="#00000010"/><path d="M0,0 C-7.3,-1.7 -7.3,-9.8 0,-14.0 C7.3,-9.8 7.3,-1.7 0,0 Z" transform="rotate(60.0)" fill="url(#rose)"/><path d="M0,0 C-7.3,-1.7 -7.3,-9.8 0,-14.0 C7.3,-9.8 7.3,-1.7 0,0 Z" transform="rotate(60.0) scale(0.9)" fill="#00000010"/><path d="M0,0 C-7.3,-1.7 -7.3,-9.8 0,-14.0 C7.3,-9.8 7.3,-1.7 0,0 Z" transform="rotate(120.0)" fill="url(#rose)"/><path d="M0,0 C-7.3,-1.7 -7.3,-9.8 0,-14.0 C7.3,-9.8 7.3,-1.7 0,0 Z" transform="rotate(120.0) scale(0.9)" fill="#00000010"/><path d="M0,0 C-7.3,-1.7 -7.3,-9.8 0,-14.0 C7.3,-9.8 7.3,-1.7 0,0 Z" transform="rotate(180.0)" fill="url(#rose)"/><path d="M0,0 C-7.3,-1.7 -7.3,-9.8 0,-14.0 C7.3,-9.8 7.3,-1.7 0,0 Z" transform="rotate(180.0) scale(0.9)" fill="#00000010"/><path d="M0,0 C-7.3,-1.7 -7.3,-9.8 0,-14.0 C7.3,-9.8 7.3,-1.7 0,0 Z" transform="rotate(240.0)" fill="url(#rose)"/><path d="M0,0 C-7.3,-1.7 -7.3,-9.8 0,-14.0 C7.3,-9.8 7.3,-1.7 0,0 Z" transform="rotate(240.0) scale(0.9)" fill="#00000010"/><path d="M0,0 C-7.3,-1.7 -7.3,-9.8 0,-14.0 C7.3,-9.8 7.3,-1.7 0,0 Z" transform="rotate(300.0)" fill="url(#rose)"/><path d="M0,0 C-7.3,-1.7 -7.3,-9.8 0,-14.0 C7.3,-9.8 7.3,-1.7 0,0 Z" transform="rotate(300.0) scale(0.9)" fill="#00000010"/><path d="M0,0 C-5.8,-1.3 -5.8,-7.8 0,-11.2 C5.8,-7.8 5.8,-1.3 0,0 Z" transform="rotate(18.0)" fill="url(#rose)"/><path d="M0,0 C-5.8,-1.3 -5.8,-7.8 0,-11.2 C5.8,-7.8 5.8,-1.3 0,0 Z" transform="rotate(18.0) scale(0.9)" fill="#00000010"/><path d="M0,0 C-5.8,-1.3 -5.8,-7.8 0,-11.2 C5.8,-7.8 5.8,-1.3 0,0 Z" transform="rotate(78.0)" fill="url(#rose)"/><path d="M0,0 C-5.8,-1.3 -5.8,-7.8 0,-11.2 C5.8,-7.8 5.8,-1.3 0,0 Z" transform="rotate(78.0) scale(0.9)" fill="#00000010"/><path d="M0,0 C-5.8,-1.3 -5.8,-7.8 0,-11.2 C5.8,-7.8 5.8,-1.3 0,0 Z" transform="rotate(138.0)" fill="url(#rose)"/><path d="M0,0 C-5.8,-1.3 -5.8,-7.8 0,-11.2 C5.8,-7.8 5.8,-1.3 0,0 Z" transform="rotate(138.0) scale(0.9)" fill="#00000010"/><path d="M0,0 C-5.8,-1.3 -5.8,-7.8 0,-11.2 C5.8,-7.8 5.8,-1.3 0,0 Z" transform="rotate(198.0)" fill="url(#rose)"/><path d="M0,0 C-5.8,-1.3 -5.8,-7.8 0,-11.2 C5.8,-7.8 5.8,-1.3 0,0 Z" transform="rotate(198.0) scale(0.9)" fill="#00000010"/><path d="M0,0 C-5.8,-1.3 -5.8,-7.8 0,-11.2 C5.8,-7.8 5.8,-1.3 0,0 Z" transform="rotate(258.0)" fill="url(#rose)"/><path d="M0,0 C-5.8,-1.3 -5.8,-7.8 0,-11.2 C5.8,-7.8 5.8,-1.3 0,0 Z" transform="rotate(258.0) scale(0.9)" fill="#00000010"/><path d="M0,0 C-5.8,-1.3 -5.8,-7.8 0,-11.2 C5.8,-7.8 5.8,-1.3 0,0 Z" transform="rotate(318.0)" fill="url(#rose)"/><path d="M0,0 C-5.8,-1.3 -5.8,-7.8 0,-11.2 C5.8,-7.8 5.8,-1.3 0,0 Z" transform="rotate(318.0) scale(0.9)" fill="#00000010"/><path d="M0,0 C-4.5,-1.0 -4.5,-6.1 0,-8.7 C4.5,-6.1 4.5,-1.0 0,0 Z" transform="rotate(34.0)" fill="url(#rose)"/><path d="M0,0 C-4.5,-1.0 -4.5,-6.1 0,-8.7 C4.5,-6.1 4.5,-1.0 0,0 Z" transform="rotate(34.0) scale(0.9)" fill="#00000010"/><path d="M0,0 C-4.5,-1.0 -4.5,-6.1 0,-8.7 C4.5,-6.1 4.5,-1.0 0,0 Z" transform="rotate(94.0)" fill="url(#rose)"/><path d="M0,0 C-4.5,-1.0 -4.5,-6.1 0,-8.7 C4.5,-6.1 4.5,-1.0 0,0 Z" transform="rotate(94.0) scale(0.9)" fill="#00000010"/><path d="M0,0 C-4.5,-1.0 -4.5,-6.1 0,-8.7 C4.5,-6.1 4.5,-1.0 0,0 Z" transform="rotate(154.0)" fill="url(#rose)"/><path d="M0,0 C-4.5,-1.0 -4.5,-6.1 0,-8.7 C4.5,-6.1 4.5,-1.0 0,0 Z" transform="rotate(154.0) scale(0.9)" fill="#00000010"/><path d="M0,0 C-4.5,-1.0 -4.5,-6.1 0,-8.7 C4.5,-6.1 4.5,-1.0 0,0 Z" transform="rotate(214.0)" fill="url(#rose)"/><path d="M0,0 C-4.5,-1.0 -4.5,-6.1 0,-8.7 C4.5,-6.1 4.5,-1.0 0,0 Z" transform="rotate(214.0) scale(0.9)" fill="#00000010"/><path d="M0,0 C-4.5,-1.0 -4.5,-6.1 0,-8.7 C4.5,-6.1 4.5,-1.0 0,0 Z" transform="rotate(274.0)" fill="url(#rose)"/><path d="M0,0 C-4.5,-1.0 -4.5,-6.1 0,-8.7 C4.5,-6.1 4.5,-1.0 0,0 Z" transform="rotate(274.0) scale(0.9)" fill="#00000010"/><path d="M0,0 C-4.5,-1.0 -4.5,-6.1 0,-8.7 C4.5,-6.1 4.5,-1.0 0,0 Z" transform="rotate(334.0)" fill="url(#rose)"/><path d="M0,0 C-4.5,-1.0 -4.5,-6.1 0,-8.7 C4.5,-6.1 4.5,-1.0 0,0 Z" transform="rotate(334.0) scale(0.9)" fill="#00000010"/><path d="M0,0 C-3.3,-0.8 -3.3,-4.4 0,-6.3 C3.3,-4.4 3.3,-0.8 0,0 Z" transform="rotate(52.0)" fill="url(#rose)"/><path d="M0,0 C-3.3,-0.8 -3.3,-4.4 0,-6.3 C3.3,-4.4 3.3,-0.8 0,0 Z" transform="rotate(52.0) scale(0.9)" fill="#00000010"/><path d="M0,0 C-3.3,-0.8 -3.3,-4.4 0,-6.3 C3.3,-4.4 3.3,-0.8 0,0 Z" transform="rotate(112.0)" fill="url(#rose)"/><path d="M0,0 C-3.3,-0.8 -3.3,-4.4 0,-6.3 C3.3,-4.4 3.3,-0.8 0,0 Z" transform="rotate(112.0) scale(0.9)" fill="#00000010"/><path d="M0,0 C-3.3,-0.8 -3.3,-4.4 0,-6.3 C3.3,-4.4 3.3,-0.8 0,0 Z" transform="rotate(172.0)" fill="url(#rose)"/><path d="M0,0 C-3.3,-0.8 -3.3,-4.4 0,-6.3 C3.3,-4.4 3.3,-0.8 0,0 Z" transform="rotate(172.0) scale(0.9)" fill="#00000010"/><path d="M0,0 C-3.3,-0.8 -3.3,-4.4 0,-6.3 C3.3,-4.4 3.3,-0.8 0,0 Z" transform="rotate(232.0)" fill="url(#rose)"/><path d="M0,0 C-3.3,-0.8 -3.3,-4.4 0,-6.3 C3.3,-4.4 3.3,-0.8 0,0 Z" transform="rotate(232.0) scale(0.9)" fill="#00000010"/><path d="M0,0 C-3.3,-0.8 -3.3,-4.4 0,-6.3 C3.3,-4.4 3.3,-0.8 0,0 Z" transform="rotate(292.0)" fill="url(#rose)"/><path d="M0,0 C-3.3,-0.8 -3.3,-4.4 0,-6.3 C3.3,-4.4 3.3,-0.8 0,0 Z" transform="rotate(292.0) scale(0.9)" fill="#00000010"/><path d="M0,0 C-3.3,-0.8 -3.3,-4.4 0,-6.3 C3.3,-4.4 3.3,-0.8 0,0 Z" transform="rotate(352.0)" fill="url(#rose)"/><path d="M0,0 C-3.3,-0.8 -3.3,-4.4 0,-6.3 C3.3,-4.4 3.3,-0.8 0,0 Z" transform="rotate(352.0) scale(0.9)" fill="#00000010"/><path d="M0,0 C-2.2,-0.5 -2.2,-2.9 0,-4.2 C2.2,-2.9 2.2,-0.5 0,0 Z" transform="rotate(70.0)" fill="url(#rose)"/><path d="M0,0 C-2.2,-0.5 -2.2,-2.9 0,-4.2 C2.2,-2.9 2.2,-0.5 0,0 Z" transform="rotate(70.0) scale(0.9)" fill="#00000010"/><path d="M0,0 C-2.2,-0.5 -2.2,-2.9 0,-4.2 C2.2,-2.9 2.2,-0.5 0,0 Z" transform="rotate(130.0)" fill="url(#rose)"/><path d="M0,0 C-2.2,-0.5 -2.2,-2.9 0,-4.2 C2.2,-2.9 2.2,-0.5 0,0 Z" transform="rotate(130.0) scale(0.9)" fill="#00000010"/><path d="M0,0 C-2.2,-0.5 -2.2,-2.9 0,-4.2 C2.2,-2.9 2.2,-0.5 0,0 Z" transform="rotate(190.0)" fill="url(#rose)"/><path d="M0,0 C-2.2,-0.5 -2.2,-2.9 0,-4.2 C2.2,-2.9 2.2,-0.5 0,0 Z" transform="rotate(190.0) scale(0.9)" fill="#00000010"/><path d="M0,0 C-2.2,-0.5 -2.2,-2.9 0,-4.2 C2.2,-2.9 2.2,-0.5 0,0 Z" transform="rotate(250.0)" fill="url(#rose)"/><path d="M0,0 C-2.2,-0.5 -2.2,-2.9 0,-4.2 C2.2,-2.9 2.2,-0.5 0,0 Z" transform="rotate(250.0) scale(0.9)" fill="#00000010"/><path d="M0,0 C-2.2,-0.5 -2.2,-2.9 0,-4.2 C2.2,-2.9 2.2,-0.5 0,0 Z" transform="rotate(310.0)" fill="url(#rose)"/><path d="M0,0 C-2.2,-0.5 -2.2,-2.9 0,-4.2 C2.2,-2.9 2.2,-0.5 0,0 Z" transform="rotate(310.0) scale(0.9)" fill="#00000010"/><path d="M0,0 C-2.2,-0.5 -2.2,-2.9 0,-4.2 C2.2,-2.9 2.2,-0.5 0,0 Z" transform="rotate(370.0)" fill="url(#rose)"/><path d="M0,0 C-2.2,-0.5 -2.2,-2.9 0,-4.2 C2.2,-2.9 2.2,-0.5 0,0 Z" transform="rotate(370.0) scale(0.9)" fill="#00000010"/><circle r="2.8" fill="url(#roseC)"/><path d="M0,-2.0 A 1.7 1.7 0 1 1 -1.5,1.0" fill="none" stroke="#47607a" stroke-width="1.0" opacity="0.5"/></g><g transform="translate(-22,-22) scale(1.0)" filter="url(#soft)"><ellipse rx="3.2" ry="6.4" transform="rotate(0)" cx="0" cy="-4.5" fill="#fbf6ec"/><ellipse rx="3.2" ry="6.4" transform="rotate(72)" cx="0" cy="-4.5" fill="#fbf6ec"/><ellipse rx="3.2" ry="6.4" transform="rotate(144)" cx="0" cy="-4.5" fill="#fbf6ec"/><ellipse rx="3.2" ry="6.4" transform="rotate(216)" cx="0" cy="-4.5" fill="#fbf6ec"/><ellipse rx="3.2" ry="6.4" transform="rotate(288)" cx="0" cy="-4.5" fill="#fbf6ec"/><circle r="2.1" fill="#e6c98f"/></g><g transform="translate(18,-20) scale(1.0)" filter="url(#soft)"><ellipse rx="3.2" ry="6.4" transform="rotate(0)" cx="0" cy="-4.5" fill="#fbf6ec"/><ellipse rx="3.2" ry="6.4" transform="rotate(72)" cx="0" cy="-4.5" fill="#fbf6ec"/><ellipse rx="3.2" ry="6.4" transform="rotate(144)" cx="0" cy="-4.5" fill="#fbf6ec"/><ellipse rx="3.2" ry="6.4" transform="rotate(216)" cx="0" cy="-4.5" fill="#fbf6ec"/><ellipse rx="3.2" ry="6.4" transform="rotate(288)" cx="0" cy="-4.5" fill="#fbf6ec"/><circle r="2.1" fill="#e6c98f"/></g><g transform="translate(-14,16) scale(1.0)" filter="url(#soft)"><ellipse rx="3.2" ry="6.4" transform="rotate(0)" cx="0" cy="-4.5" fill="#fbf6ec"/><ellipse rx="3.2" ry="6.4" transform="rotate(72)" cx="0" cy="-4.5" fill="#fbf6ec"/><ellipse rx="3.2" ry="6.4" transform="rotate(144)" cx="0" cy="-4.5" fill="#fbf6ec"/><ellipse rx="3.2" ry="6.4" transform="rotate(216)" cx="0" cy="-4.5" fill="#fbf6ec"/><ellipse rx="3.2" ry="6.4" transform="rotate(288)" cx="0" cy="-4.5" fill="#fbf6ec"/><circle r="2.1" fill="#e6c98f"/></g><g transform="translate(24,-6) scale(1.0)" filter="url(#soft)"><ellipse rx="3.2" ry="6.4" transform="rotate(0)" cx="0" cy="-4.5" fill="#fbf6ec"/><ellipse rx="3.2" ry="6.4" transform="rotate(72)" cx="0" cy="-4.5" fill="#fbf6ec"/><ellipse rx="3.2" ry="6.4" transform="rotate(144)" cx="0" cy="-4.5" fill="#fbf6ec"/><ellipse rx="3.2" ry="6.4" transform="rotate(216)" cx="0" cy="-4.5" fill="#fbf6ec"/><ellipse rx="3.2" ry="6.4" transform="rotate(288)" cx="0" cy="-4.5" fill="#fbf6ec"/><circle r="2.1" fill="#e6c98f"/></g></g></svg>